<svg width="15" height="17" viewBox="0 0 15 17" fill="none" xmlns="http://www.w3.org/2000/svg">
<path d="M7.82651 16.1258C7.2482 16.1286 6.67759 15.9976 6.16248 15.7438C5.64736 15.4899 5.20272 15.1205 4.86578 14.6666C2.24845 11.1798 0.920898 8.55851 0.920898 6.87513C0.920898 5.10635 1.64845 3.41001 2.9435 2.15929C4.23856 0.908578 5.99503 0.205933 7.82651 0.205933C9.65799 0.205933 11.4145 0.908578 12.7095 2.15929C14.0046 3.41001 14.7321 5.10635 14.7321 6.87513C14.7321 8.55851 13.4046 11.1798 10.7872 14.6666C10.4503 15.1205 10.0057 15.4899 9.49054 15.7438C8.97542 15.9976 8.40482 16.1286 7.82651 16.1258ZM7.82651 1.65385C6.39279 1.65543 5.01826 2.20618 4.00447 3.18526C2.99068 4.16435 2.42041 5.49182 2.41877 6.87645C2.41877 8.20963 3.71885 10.675 6.07864 13.8183C6.27897 14.0847 6.54179 14.3016 6.84558 14.4512C7.14938 14.6007 7.48552 14.6787 7.82651 14.6787C8.16749 14.6787 8.50364 14.6007 8.80743 14.4512C9.11123 14.3016 9.37404 14.0847 9.57437 13.8183C11.9342 10.675 13.2342 8.20963 13.2342 6.87645C13.2326 5.49182 12.6623 4.16435 11.6485 3.18526C10.6348 2.20618 9.26023 1.65543 7.82651 1.65385Z" fill="white"/>
</svg>
