<svg width="16" height="17" viewBox="0 0 16 17" fill="none" xmlns="http://www.w3.org/2000/svg">
<g clip-path="url(#clip0_1039_1293)">
<path d="M15.7333 7.66715C15.6407 6.1151 15.112 4.62506 14.2123 3.3807C13.3125 2.13635 12.0811 1.19208 10.6699 0.664317C9.25865 0.136553 7.72924 0.0483615 6.27022 0.410615C4.8112 0.772869 3.48635 1.56973 2.459 2.70297C1.43164 3.8362 0.746704 5.25626 0.488618 6.78808C0.230531 8.31991 0.41058 9.89653 1.00657 11.3236C1.60256 12.7506 2.58843 13.9657 3.84264 14.819C5.09686 15.6724 6.56459 16.1266 8.06489 16.1259H12.5336C13.3819 16.125 14.1953 15.7753 14.7952 15.1535C15.395 14.5318 15.7324 13.6888 15.7333 12.8095V7.66715ZM14.4534 12.8095C14.4534 13.3372 14.2511 13.8433 13.8911 14.2165C13.5311 14.5897 13.0427 14.7993 12.5336 14.7993H8.06489C7.16189 14.7989 6.26912 14.6012 5.44479 14.2191C4.62045 13.8371 3.88307 13.2793 3.28071 12.582C2.67544 11.8851 2.22092 11.0621 1.94765 10.1682C1.67437 9.27432 1.58864 8.33021 1.69622 7.39918C1.86608 5.93066 2.50266 4.56249 3.50561 3.51037C4.50855 2.45825 5.82082 1.78201 7.23553 1.58826C7.51149 1.55241 7.78933 1.53424 8.06745 1.53387C9.55881 1.52965 11.004 2.06973 12.1496 3.05939C12.8187 3.63574 13.3679 4.34691 13.7639 5.14978C14.1599 5.95266 14.3945 6.83052 14.4534 7.73016V12.8095Z" fill="white"/>
<path d="M5.49419 6.17688H8.05395C8.22368 6.17688 8.38645 6.107 8.50646 5.98261C8.62647 5.85823 8.69389 5.68952 8.69389 5.51361C8.69389 5.3377 8.62647 5.169 8.50646 5.04461C8.38645 4.92022 8.22368 4.85034 8.05395 4.85034H5.49419C5.32447 4.85034 5.16169 4.92022 5.04168 5.04461C4.92167 5.169 4.85425 5.3377 4.85425 5.51361C4.85425 5.68952 4.92167 5.85823 5.04168 5.98261C5.16169 6.107 5.32447 6.17688 5.49419 6.17688Z" fill="white"/>
<path d="M10.6137 7.5033H5.49418C5.32446 7.5033 5.16169 7.57318 5.04168 7.69756C4.92167 7.82195 4.85425 7.99066 4.85425 8.16657C4.85425 8.34248 4.92167 8.51118 5.04168 8.63557C5.16169 8.75995 5.32446 8.82984 5.49418 8.82984H10.6137C10.7834 8.82984 10.9462 8.75995 11.0662 8.63557C11.1862 8.51118 11.2536 8.34248 11.2536 8.16657C11.2536 7.99066 11.1862 7.82195 11.0662 7.69756C10.9462 7.57318 10.7834 7.5033 10.6137 7.5033Z" fill="white"/>
<path d="M10.6137 10.1565H5.49418C5.32446 10.1565 5.16169 10.2264 5.04168 10.3508C4.92167 10.4752 4.85425 10.6439 4.85425 10.8198C4.85425 10.9957 4.92167 11.1644 5.04168 11.2888C5.16169 11.4132 5.32446 11.483 5.49418 11.483H10.6137C10.7834 11.483 10.9462 11.4132 11.0662 11.2888C11.1862 11.1644 11.2536 10.9957 11.2536 10.8198C11.2536 10.6439 11.1862 10.4752 11.0662 10.3508C10.9462 10.2264 10.7834 10.1565 10.6137 10.1565Z" fill="white"/>
</g>
<defs>
<clipPath id="clip0_1039_1293">
<rect width="15.3585" height="15.9185" fill="white" transform="translate(0.374756 0.207397)"/>
</clipPath>
</defs>
</svg>
