<svg width="47" height="65" viewBox="0 0 47 65" fill="none" xmlns="http://www.w3.org/2000/svg">
<path d="M11.4067 52.5911C12.3254 53.1896 13.4984 53.3692 14.5997 52.9891L22.1888 50.4036C22.959 50.1409 23.7946 50.1409 24.5648 50.4036L32.1539 52.9891C33.2552 53.3662 34.4282 53.1896 35.3469 52.5911V64.244L23.3768 60.1802L11.4067 64.244V52.5911ZM22.4102 45.4988L16.2396 47.6025C15.5488 47.8378 14.7958 47.8125 14.1224 47.5314C13.4489 47.2504 12.9014 46.7329 12.5827 46.0764L9.57523 39.8968C9.29892 39.3258 8.84831 38.8573 8.28844 38.5591L2.30338 35.387C1.68744 35.0595 1.2053 34.527 0.94029 33.8817C0.675277 33.2364 0.644047 32.5187 0.851998 31.8528L2.9767 25.0508C3.15798 24.4701 3.15798 23.848 2.9767 23.2673L0.851998 16.4652C0.643506 15.7986 0.674779 15.08 0.940399 14.434C1.20602 13.788 1.68925 13.2552 2.30637 12.9281L8.28844 9.75597C8.84785 9.45852 9.2984 8.9912 9.57523 8.42131L12.5827 2.23275C12.9019 1.57676 13.4496 1.05994 14.1231 0.779439C14.7965 0.498941 15.5492 0.474086 16.2396 0.709546L22.4102 2.8133C23.0369 3.02717 23.7167 3.02717 24.3434 2.8133L30.514 0.709546C31.2048 0.474305 31.9578 0.499597 32.6312 0.780667C33.3047 1.06174 33.8522 1.57921 34.1709 2.23574L37.1784 8.41831C37.4547 8.98931 37.9053 9.45774 38.4652 9.75597L44.4502 12.9281C45.0662 13.2556 45.5483 13.7881 45.8133 14.4334C46.0783 15.0787 46.1096 15.7963 45.9016 16.4622L43.7769 23.2643C43.5956 23.845 43.5956 24.4671 43.7769 25.0478L45.9016 31.8498C46.1101 32.5165 46.0788 33.2351 45.8132 33.8811C45.5476 34.5271 45.0644 35.0598 44.4472 35.387L38.4652 38.5591C37.9058 38.8566 37.4552 39.3239 37.1784 39.8938L34.1709 46.0793C33.8517 46.7353 33.304 47.2522 32.6305 47.5327C31.9571 47.8132 31.2044 47.838 30.514 47.6025L24.3434 45.4988C23.7167 45.2849 23.0369 45.2849 22.4102 45.4988ZM23.3768 15.1784C22.5831 15.1784 21.822 15.4937 21.2608 16.0549C20.6996 16.6161 20.3843 17.3773 20.3843 18.171V30.1411C20.3843 30.9348 20.6996 31.6959 21.2608 32.2572C21.822 32.8184 22.5831 33.1336 23.3768 33.1336C24.1705 33.1336 24.9316 32.8184 25.4928 32.2572C26.0541 31.6959 26.3693 30.9348 26.3693 30.1411V18.171C26.3693 17.3773 26.0541 16.6161 25.4928 16.0549C24.9316 15.4937 24.1705 15.1784 23.3768 15.1784Z" fill="#FFB347"/>
</svg>
