<svg width="72" height="72" viewBox="0 0 72 72" fill="none" xmlns="http://www.w3.org/2000/svg">
<path d="M47.8661 14H38.605C37.7425 14 36.9123 14.3514 36.2763 14.984L25.6783 25.5271C25.6675 25.5388 25.6567 25.5622 25.6459 25.5739C23.8563 27.4014 23.8886 30.3183 25.4195 32.134C26.7888 33.7624 29.6673 34.1958 31.4678 32.4503C31.4786 32.4386 31.5002 32.4386 31.5109 32.4269L40.1252 23.8519C40.8259 23.1607 41.9256 23.2076 42.5617 23.969C43.2086 24.7305 43.1547 25.9136 42.4539 26.6165L39.64 29.4163L55.3375 43.2628C55.6502 43.544 55.9305 43.8485 56.1892 44.1648V21.4973L50.3027 15.1012C49.6666 14.3983 48.7825 14 47.8661 14ZM59.65 21.5207V47.7495C59.65 49.8229 61.1917 51.4981 63.1 51.4981H70V21.5207H59.65ZM64.825 47.7495C63.8763 47.7495 63.1 46.906 63.1 45.8752C63.1 44.8443 63.8763 44.0008 64.825 44.0008C65.7738 44.0008 66.55 44.8443 66.55 45.8752C66.55 46.906 65.7738 47.7495 64.825 47.7495ZM1 51.4864H7.9C9.80828 51.4864 11.35 49.8112 11.35 47.7378V21.5207H1V51.4864ZM6.175 44.0008C7.12375 44.0008 7.9 44.8443 7.9 45.8752C7.9 46.906 7.12375 47.7495 6.175 47.7495C5.22625 47.7495 4.45 46.906 4.45 45.8752C4.45 44.8326 5.22625 44.0008 6.175 44.0008ZM53.1705 46.1797L37.0741 31.9818L33.8397 35.2032C30.6377 38.3779 25.7322 38.0733 22.8752 34.6878C19.975 31.2437 20.2014 25.9136 23.3495 22.7742L32.1686 14H23.1339C22.2175 14 21.3442 14.3983 20.6973 15.1012L14.8 21.4973V47.726H16.773L26.53 57.3202C29.4841 59.9326 33.8289 59.4405 36.2331 56.2308L36.2547 56.2073L38.1845 58.0231C39.8987 59.546 42.4323 59.2531 43.8231 57.3905L47.2084 52.8687L47.7906 53.3842C49.2677 54.6845 51.4455 54.4502 52.6422 52.8336L53.6664 51.463C54.8739 49.8464 54.6475 47.4918 53.1705 46.1797Z" fill="#F37021"/>
</svg>
