<svg width="18" height="23" viewBox="0 0 18 23" fill="none" xmlns="http://www.w3.org/2000/svg">
<path d="M9.34988 18.9719C9.56872 18.9537 9.75583 18.8669 9.9112 18.7115C10.0666 18.5561 10.1439 18.3694 10.1432 18.1513C10.1432 17.896 10.0611 17.691 9.89698 17.5363C9.73285 17.3817 9.52313 17.3131 9.26782 17.3306C8.52011 17.3853 7.72682 17.1804 6.88794 16.7157C6.04906 16.251 5.5202 15.4074 5.30136 14.1848C5.26488 13.9842 5.16932 13.8201 5.01468 13.6924C4.86003 13.5648 4.68204 13.501 4.48071 13.501C4.2254 13.501 4.01568 13.5969 3.85155 13.7887C3.68742 13.9806 3.63271 14.2038 3.68742 14.4584C3.99744 16.1179 4.7269 17.3033 5.87581 18.0145C7.02471 18.7257 8.18274 19.0449 9.34988 18.9719ZM9.04898 22.2545C6.55056 22.2545 4.46721 21.3974 2.79893 19.6832C1.13065 17.9689 0.29614 15.8352 0.29541 13.2821C0.29541 11.4585 1.0205 9.47541 2.47067 7.33297C3.92085 5.19054 6.11361 2.86975 9.04898 0.370605C11.9851 2.86902 14.1782 5.18981 15.6284 7.33297C17.0786 9.47614 17.8033 11.4592 17.8025 13.2821C17.8025 15.8352 16.9684 17.9689 15.3001 19.6832C13.6318 21.3974 11.5481 22.2545 9.04898 22.2545Z" fill="white"/>
</svg>
