<svg width="16" height="23" viewBox="0 0 16 23" fill="none" xmlns="http://www.w3.org/2000/svg">
<path d="M13.9957 4.36802C15.0747 5.77064 15.6142 7.06536 15.6142 8.57587C15.6142 10.4101 14.8589 12.1364 13.0247 14.0785C10.9747 16.2363 9.14053 18.61 9.14053 20.9837C9.14053 21.4152 9.24843 21.8468 9.35632 22.3863C9.35632 22.4942 9.35632 22.6021 9.24843 22.71C9.14053 22.8178 9.03264 22.71 9.03264 22.6021C7.9537 21.1994 7.41423 19.9047 7.41423 18.3942C7.41423 16.56 8.16949 14.8337 10.0037 12.8916C12.0537 10.7337 13.8879 8.36009 13.8879 5.98642C13.8879 5.55485 13.78 5.12327 13.6721 4.58381C13.6721 4.47591 13.6721 4.36802 13.78 4.26012C13.8879 4.26012 13.8879 4.26012 13.9957 4.36802ZM5.58004 1.13121C6.33529 2.10225 6.65898 3.18119 6.65898 4.15223C6.65898 5.55485 6.01161 6.84957 4.71689 8.25219C3.20638 9.8706 1.80376 11.7048 1.80376 13.4311C1.80376 13.7548 1.91165 14.1863 2.01955 14.4021C2.01955 14.51 2.01955 14.51 1.91165 14.6179C1.80376 14.7258 1.69586 14.6179 1.69586 14.6179C0.832714 13.539 0.509033 12.46 0.509033 11.489C0.509033 10.0864 1.1564 8.79166 2.45112 7.38904C3.96163 5.77064 5.36425 3.93644 5.36425 2.21014C5.36425 1.88646 5.25636 1.45489 5.14846 1.2391V1.02331C5.36425 1.02331 5.47214 1.02331 5.58004 1.13121ZM6.01161 9.54692C8.06159 7.38904 9.89579 5.01538 9.89579 2.64172C9.89579 2.21014 9.78789 1.77857 9.68 1.2391C9.68 1.13121 9.68 1.02331 9.78789 0.915419C9.89579 0.807525 10.0037 0.915419 10.0037 1.02331C11.0826 2.42593 11.6221 3.72066 11.6221 5.23117C11.6221 7.06536 10.8668 8.79166 9.03264 10.7337C6.98266 12.8916 5.14846 15.2653 5.14846 17.6389C5.14846 18.0705 5.25636 18.5021 5.36425 19.0416C5.36425 19.1495 5.36425 19.2574 5.25636 19.3652C5.14846 19.4731 5.04057 19.3652 5.04057 19.2574C3.96163 17.8547 3.42216 16.56 3.42216 15.0495C3.42216 13.2153 4.17742 11.489 6.01161 9.54692Z" fill="white"/>
</svg>
