<svg width="31" height="31" viewBox="0 0 31 31" fill="none" xmlns="http://www.w3.org/2000/svg">
<path d="M15.125 0.125C6.855 0.125 0.125 6.855 0.125 15.125C0.125 23.395 6.855 30.125 15.125 30.125C23.395 30.125 30.125 23.395 30.125 15.125C30.125 6.855 23.395 0.125 15.125 0.125ZM15.125 2.625C22.0437 2.625 27.625 8.20625 27.625 15.125C27.6273 18.1172 26.5539 21.0106 24.6008 23.2775C22.6476 25.5443 19.9447 27.0336 16.985 27.4737V18.77H20.545L21.1038 15.1538H16.985V13.1787C16.985 11.6787 17.4788 10.345 18.8825 10.345H21.1388V7.19C20.7425 7.13625 19.9038 7.02 18.3188 7.02C15.0088 7.02 13.0687 8.7675 13.0687 12.75V15.1538H9.66625V18.77H13.0687V27.4425C10.1497 26.9621 7.49655 25.4594 5.58336 23.2029C3.67018 20.9465 2.62161 18.0833 2.625 15.125C2.625 8.20625 8.20625 2.625 15.125 2.625Z" fill="white"/>
</svg>
