<svg width="68" height="67" viewBox="0 0 68 67" fill="none" xmlns="http://www.w3.org/2000/svg">
<path fill-rule="evenodd" clip-rule="evenodd" d="M34.0143 3.78168H33.7266C31.2399 3.78168 29.168 3.78168 27.5249 4.00297C25.7878 4.23533 24.2194 4.74983 22.9608 6.00843C21.6994 7.26979 21.1849 8.8382 20.9526 10.5726C20.7949 11.7537 20.7479 14.5724 20.7368 16.99C15.1437 17.1754 11.7828 17.8282 9.45091 20.1628C6.20898 23.402 6.20898 28.6189 6.20898 39.0501C6.20898 49.4812 6.20898 54.6982 9.45091 57.9374C12.6928 61.1765 17.907 61.1793 28.3382 61.1793H39.4028C49.8339 61.1793 55.0509 61.1793 58.2901 57.9374C61.5292 54.6954 61.532 49.4812 61.532 39.0501C61.532 28.6189 61.532 23.402 58.2901 20.1628C55.9582 17.8282 52.5973 17.1754 47.0042 16.9928C46.9931 14.5724 46.9488 11.7537 46.7884 10.5753C46.5561 8.8382 46.0416 7.26979 44.7802 6.01119C43.5216 4.74983 41.9532 4.23533 40.216 4.00297C38.5729 3.78168 36.4983 3.78168 34.0143 3.78168ZM42.8549 16.9264C42.8411 14.5835 42.8024 12.0635 42.6779 11.1258C42.5036 9.85061 42.2077 9.30291 41.8481 8.94331C41.4885 8.58371 40.9408 8.28774 39.6628 8.11347C38.3295 7.93643 36.5371 7.9309 33.8705 7.9309C31.2039 7.9309 29.4115 7.93643 28.0754 8.11623C26.8002 8.28774 26.2525 8.58371 25.8929 8.94608C25.5333 9.30845 25.2373 9.85061 25.0631 11.1258C24.9386 12.0663 24.8971 14.5835 24.886 16.9264C25.9704 16.9209 27.1211 16.919 28.3382 16.9209H39.4028C40.6236 16.9209 41.7743 16.9227 42.8549 16.9264ZM33.8705 25.9109C34.4207 25.9109 34.9484 26.1295 35.3375 26.5185C35.7265 26.9076 35.9451 27.4353 35.9451 27.9855V28.0132C38.9574 28.7711 41.4774 31.1472 41.4774 34.4389C41.4774 34.9891 41.2588 35.5168 40.8698 35.9059C40.4807 36.295 39.953 36.5135 39.4028 36.5135C38.8526 36.5135 38.3249 36.295 37.9358 35.9059C37.5468 35.5168 37.3282 34.9891 37.3282 34.4389C37.3282 33.3767 36.1498 31.9051 33.8705 31.9051C31.5912 31.9051 30.4128 33.3767 30.4128 34.4389C30.4128 35.5011 31.5912 36.9755 33.8705 36.9755C37.7016 36.9755 41.4774 39.631 41.4774 43.6613C41.4774 46.953 38.9574 49.3263 35.9451 50.087V50.1147C35.9451 50.6649 35.7265 51.1926 35.3375 51.5817C34.9484 51.9707 34.4207 52.1893 33.8705 52.1893C33.3203 52.1893 32.7926 51.9707 32.4035 51.5817C32.0145 51.1926 31.7959 50.6649 31.7959 50.1147V50.087C28.7835 49.3291 26.2636 46.953 26.2636 43.6613C26.2636 43.111 26.4822 42.5834 26.8712 42.1943C27.2603 41.8052 27.788 41.5867 28.3382 41.5867C28.8884 41.5867 29.4161 41.8052 29.8052 42.1943C30.1942 42.5834 30.4128 43.111 30.4128 43.6613C30.4128 44.7235 31.5912 46.1951 33.8705 46.1951C36.1498 46.1951 37.3282 44.7235 37.3282 43.6613C37.3282 42.5991 36.1498 41.1247 33.8705 41.1247C30.0394 41.1247 26.2636 38.4692 26.2636 34.4389C26.2636 31.1472 28.7835 28.7711 31.7959 28.0132V27.9855C31.7959 27.4353 32.0145 26.9076 32.4035 26.5185C32.7926 26.1295 33.3203 25.9109 33.8705 25.9109Z" fill="#FFB347"/>
</svg>
