<svg width="16" height="17" viewBox="0 0 16 17" fill="none" xmlns="http://www.w3.org/2000/svg">
<g clip-path="url(#clip0_1039_1298)">
<path d="M12.5336 1.14856H3.57445C2.72615 1.14961 1.91288 1.49935 1.31305 2.12106C0.713208 2.74277 0.375772 3.58569 0.374756 4.46492L0.374756 12.4242C0.375772 13.3034 0.713208 14.1463 1.31305 14.768C1.91288 15.3898 2.72615 15.7395 3.57445 15.7406H12.5336C13.3819 15.7395 14.1951 15.3898 14.795 14.768C15.3948 14.1463 15.7323 13.3034 15.7333 12.4242V4.46492C15.7323 3.58569 15.3948 2.74277 14.795 2.12106C14.1951 1.49935 13.3819 1.14961 12.5336 1.14856ZM3.57445 2.4751H12.5336C12.9168 2.47589 13.291 2.5955 13.608 2.81855C13.9251 3.0416 14.1704 3.35788 14.3126 3.7267L9.41196 8.8067C9.05131 9.17901 8.56303 9.38804 8.05401 9.38804C7.545 9.38804 7.05671 9.17901 6.69606 8.8067L1.79542 3.7267C1.93758 3.35788 2.18297 3.0416 2.50002 2.81855C2.81707 2.5955 3.19126 2.47589 3.57445 2.4751ZM12.5336 14.414H3.57445C3.06528 14.414 2.57697 14.2044 2.21693 13.8312C1.8569 13.458 1.65463 12.9519 1.65463 12.4242V5.45983L5.79119 9.74457C6.39185 10.3656 7.20562 10.7143 8.05401 10.7143C8.90241 10.7143 9.71617 10.3656 10.3168 9.74457L14.4534 5.45983V12.4242C14.4534 12.9519 14.2511 13.458 13.8911 13.8312C13.5311 14.2044 13.0427 14.414 12.5336 14.414Z" fill="#888899"/>
</g>
<defs>
<clipPath id="clip0_1039_1298">
<rect width="15.3585" height="15.9185" fill="white" transform="translate(0.374756 0.485229)"/>
</clipPath>
</defs>
</svg>
