<svg width="41" height="41" viewBox="0 0 41 41" fill="none" xmlns="http://www.w3.org/2000/svg">
<path d="M20.5 5.125C12.0232 5.125 5.125 12.0232 5.125 20.5C5.125 28.9767 12.0232 35.875 20.5 35.875C28.9767 35.875 35.875 28.9767 35.875 20.5C35.875 12.0232 28.9767 5.125 20.5 5.125ZM20.5 7.6875C27.5917 7.6875 33.3125 13.4083 33.3125 20.5C33.3148 23.567 32.2147 26.5328 30.2127 28.8563C28.2107 31.1798 25.4402 32.7063 22.4065 33.1575V24.2361H26.0555L26.6282 20.5295H22.4065V18.5051C22.4065 16.9676 22.9126 15.6005 24.3514 15.6005H26.6641V12.3666C26.2579 12.3115 25.3982 12.1924 23.7736 12.1924C20.3808 12.1924 18.3923 13.9836 18.3923 18.0656V20.5295H14.9048V24.2361H18.3923V33.1254C15.4003 32.633 12.6808 31.0927 10.7198 28.7799C8.75881 26.467 7.68403 23.5323 7.6875 20.5C7.6875 13.4083 13.4083 7.6875 20.5 7.6875Z" fill="white"/>
</svg>
