<svg width="23" height="23" viewBox="0 0 23 23" fill="none" xmlns="http://www.w3.org/2000/svg">
<g clip-path="url(#clip0_1039_1084)">
<path fill-rule="evenodd" clip-rule="evenodd" d="M4.19478 3.941C4.14762 3.56382 4.18123 3.18093 4.29337 2.81773C4.40552 2.45454 4.59364 2.11936 4.84524 1.83443C5.09685 1.54951 5.40618 1.32136 5.75271 1.16515C6.09924 1.00893 6.47504 0.928207 6.85515 0.928345H15.6972C17.3099 0.928345 18.5565 2.34053 18.3576 3.941L17.2005 13.1916C17.1198 13.8404 16.8046 14.4374 16.3143 14.87C15.824 15.3027 15.1925 15.5412 14.5386 15.5406H12.2427V17.5207H13.3254C13.5505 17.5209 13.7705 17.5878 13.9576 17.713C14.1447 17.8381 14.2905 18.0159 14.3766 18.2239C14.4627 18.4319 14.4853 18.6607 14.4414 18.8815C14.3975 19.1023 14.2892 19.3051 14.1302 19.4644L11.9132 21.6829C11.8071 21.7896 11.6809 21.8743 11.5419 21.932C11.4028 21.9897 11.2537 22.0193 11.1032 22.019C10.9527 22.0187 10.8037 21.9886 10.6649 21.9304C10.5261 21.8722 10.4002 21.787 10.2945 21.6798L8.07753 19.4644C7.91846 19.3051 7.81015 19.1023 7.76629 18.8815C7.72243 18.6607 7.74498 18.4319 7.8311 18.2239C7.91721 18.0159 8.06303 17.8381 8.25013 17.713C8.43723 17.5878 8.65722 17.5209 8.88232 17.5207H9.96499V15.5406H8.01223C6.66079 15.5406 5.51889 14.5339 5.35186 13.1916L4.19478 3.941ZM8.98254 8.79709C8.46322 8.90338 7.86038 8.96412 7.11481 8.93223L6.45579 3.65856C6.44869 3.60193 6.45371 3.54442 6.47053 3.48988C6.48735 3.43533 6.51558 3.38499 6.55336 3.34219C6.59113 3.29939 6.63757 3.26512 6.68961 3.24165C6.74164 3.21818 6.79807 3.20605 6.85515 3.20606H15.6972C15.9402 3.20606 16.127 3.41865 16.0966 3.65856L15.6578 7.16624C14.8752 7.11449 14.0892 7.16399 13.3193 7.31354C12.3976 7.49575 11.6626 7.81311 10.996 8.09707L10.9763 8.10618C10.3127 8.39165 9.71596 8.64372 8.98254 8.79709Z" fill="white"/>
</g>
<defs>
<clipPath id="clip0_1039_1084">
<rect width="21.2587" height="21.2587" fill="white" transform="translate(0.857178 0.870728)"/>
</clipPath>
</defs>
</svg>
