<svg width="23" height="23" viewBox="0 0 23 23" fill="none" xmlns="http://www.w3.org/2000/svg">
<path d="M9.37383 17.7827C9.37383 20.3898 7.3457 22.504 4.8417 22.504C2.3377 22.504 0.30957 20.3898 0.30957 17.7827C0.30957 16.1511 2.0839 13.9746 3.41181 12.573C3.59461 12.3766 3.81592 12.2199 4.06193 12.1128C4.30794 12.0057 4.57338 11.9504 4.8417 11.9504C5.11002 11.9504 5.37546 12.0057 5.62147 12.1128C5.86748 12.2199 6.08879 12.3766 6.27159 12.573C7.5995 13.9746 9.37383 16.1511 9.37383 17.7827ZM22.9702 17.7827C22.9702 20.3898 20.9421 22.504 18.4381 22.504C15.9341 22.504 13.906 20.3898 13.906 17.7827C13.906 16.1511 15.6803 13.9746 17.0082 12.573C17.191 12.3766 17.4123 12.2199 17.6583 12.1128C17.9043 12.0057 18.1698 11.9504 18.4381 11.9504C18.7064 11.9504 18.9719 12.0057 19.2179 12.1128C19.4639 12.2199 19.6852 12.3766 19.868 12.573C21.1959 13.9746 22.9702 16.1511 22.9702 17.7827ZM16.172 6.45236C16.172 9.05947 14.1439 11.1737 11.6399 11.1737C9.13589 11.1737 7.10777 9.05947 7.10777 6.45236C7.10777 4.8208 8.88209 2.64424 10.21 1.24268C10.3928 1.04627 10.6141 0.889619 10.8601 0.782508C11.1061 0.675396 11.3716 0.620117 11.6399 0.620117C11.9082 0.620117 12.1737 0.675396 12.4197 0.782508C12.6657 0.889619 12.887 1.04627 13.0698 1.24268C14.3977 2.64424 16.172 4.8208 16.172 6.45236Z" fill="white"/>
</svg>
