<svg width="28" height="28" viewBox="0 0 28 28" fill="none" xmlns="http://www.w3.org/2000/svg">
<path d="M13.5763 0.423706C21.0745 0.423706 27.1525 6.5018 27.1525 14C27.1525 21.4981 21.0745 27.5762 13.5763 27.5762C11.177 27.5804 8.81995 26.9454 6.74742 25.7366L0.00545149 27.5762L1.84096 20.8315C0.631261 18.7584 -0.0041837 16.4003 2.07292e-05 14C2.07292e-05 6.5018 6.07811 0.423706 13.5763 0.423706ZM8.94949 7.61912L8.67797 7.62999C8.50241 7.64208 8.33089 7.68819 8.17293 7.76575C8.02573 7.84926 7.89131 7.9535 7.77379 8.07529C7.61087 8.2287 7.51855 8.36175 7.41945 8.49072C6.91729 9.14361 6.64692 9.94516 6.65103 10.7688C6.65375 11.4341 6.82752 12.0816 7.09905 12.6871C7.65432 13.9117 8.568 15.2083 9.77357 16.4098C10.0641 16.6989 10.3492 16.9895 10.656 17.2596C12.1541 18.5784 13.9391 19.5295 15.8693 20.0373L16.6404 20.1554C16.8916 20.169 17.1428 20.15 17.3953 20.1378C17.7906 20.1169 18.1766 20.0099 18.5262 19.8242C18.7038 19.7323 18.8773 19.6327 19.0462 19.5255C19.0462 19.5255 19.1036 19.4866 19.2159 19.4033C19.3991 19.2676 19.5118 19.1712 19.6639 19.0123C19.7779 18.8947 19.873 18.758 19.949 18.6023C20.0549 18.381 20.1608 17.9588 20.2042 17.6072C20.2368 17.3384 20.2273 17.1917 20.2232 17.1008C20.2178 16.9555 20.097 16.8048 19.9653 16.741L19.1751 16.3867C19.1751 16.3867 17.994 15.8721 17.2717 15.5436C17.1961 15.5107 17.1152 15.4918 17.0328 15.4879C16.9399 15.4782 16.846 15.4886 16.7575 15.5183C16.6689 15.5481 16.5878 15.5965 16.5196 15.6603C16.5128 15.6576 16.4219 15.735 15.4403 16.9243C15.384 17 15.3064 17.0572 15.2174 17.0886C15.1284 17.1201 15.0321 17.1243 14.9407 17.1008C14.8522 17.0772 14.7656 17.0473 14.6814 17.0112C14.513 16.9406 14.4547 16.9134 14.3393 16.8646C13.5598 16.525 12.8383 16.0656 12.201 15.5029C12.0299 15.3535 11.8711 15.1906 11.7082 15.0331C11.1741 14.5216 10.7086 13.9429 10.3234 13.3117L10.2433 13.1827C10.1866 13.0955 10.1402 13.0021 10.1048 12.9044C10.0532 12.7048 10.1876 12.5446 10.1876 12.5446C10.1876 12.5446 10.5176 12.1835 10.671 11.988C10.8203 11.7979 10.9466 11.6133 11.028 11.4816C11.1882 11.2236 11.2385 10.9589 11.1543 10.7539C10.7741 9.82527 10.3813 8.90163 9.97586 7.98297C9.89576 7.80105 9.65817 7.67071 9.44231 7.64492C9.369 7.63587 9.29569 7.62863 9.22237 7.6232C9.04008 7.61274 8.8573 7.61456 8.67525 7.62863L8.94949 7.61912Z" fill="#007AFF"/>
</svg>
