<svg width="18" height="17" viewBox="0 0 18 17" fill="none" xmlns="http://www.w3.org/2000/svg">
<g clip-path="url(#clip0_1039_1278)">
<path d="M9.11176 0.207397C7.48177 0.207397 5.88838 0.6742 4.53309 1.54877C3.1778 2.42335 2.12148 3.66641 1.4977 5.12078C0.873932 6.57514 0.710725 8.17548 1.02872 9.71943C1.34672 11.2634 2.13163 12.6816 3.28421 13.7947C4.43679 14.9078 5.90527 15.6659 7.50395 15.973C9.10262 16.2801 10.7597 16.1225 12.2656 15.52C13.7715 14.9176 15.0587 13.8975 15.9642 12.5886C16.8698 11.2797 17.3532 9.74085 17.3532 8.16665C17.3508 6.05643 16.4817 4.03329 14.9367 2.54113C13.3917 1.04897 11.2968 0.20968 9.11176 0.207397V0.207397ZM9.11176 14.7994C7.75343 14.7994 6.42561 14.4104 5.2962 13.6816C4.16679 12.9527 3.28652 11.9169 2.76671 10.7049C2.2469 9.49291 2.1109 8.1593 2.37589 6.87268C2.64089 5.58605 3.29499 4.40422 4.25547 3.47662C5.21596 2.54902 6.43969 1.91731 7.77191 1.66139C9.10414 1.40546 10.485 1.53681 11.74 2.03883C12.9949 2.54084 14.0675 3.39097 14.8222 4.48172C15.5768 5.57246 15.9796 6.85483 15.9796 8.16665C15.9776 9.92517 15.2534 11.6111 13.9658 12.8546C12.6783 14.098 10.9326 14.7974 9.11176 14.7994Z" fill="white"/>
<path d="M9.11168 4.18713C8.92954 4.18713 8.75485 4.25701 8.62606 4.3814C8.49726 4.50579 8.4249 4.67449 8.4249 4.8504V7.71905L6.10977 9.11987C5.95494 9.21328 5.84488 9.36226 5.80379 9.53404C5.76271 9.70582 5.79396 9.88632 5.89068 10.0358C5.9874 10.1854 6.14166 10.2917 6.31953 10.3313C6.4974 10.371 6.6843 10.3408 6.83913 10.2474L9.47636 8.65558C9.576 8.59529 9.65795 8.5113 9.71435 8.41165C9.77074 8.31201 9.79971 8.20005 9.79846 8.0865V4.8504C9.79846 4.67449 9.72611 4.50579 9.59731 4.3814C9.46851 4.25701 9.29383 4.18713 9.11168 4.18713Z" fill="white"/>
</g>
<defs>
<clipPath id="clip0_1039_1278">
<rect width="16.4828" height="15.9185" fill="white" transform="translate(0.870361 0.207397)"/>
</clipPath>
</defs>
</svg>
