<svg width="73" height="73" viewBox="0 0 73 73" fill="none" xmlns="http://www.w3.org/2000/svg">
<path d="M53.6038 46.0867C53.4668 46.0538 53.324 46.0538 53.187 46.0867H53.6038Z" fill="#F37021"/>
<path d="M32.893 9.53131C33.5845 8.84001 34.5223 8.45166 35.5 8.45166C36.4778 8.45166 37.4156 8.84001 38.1071 9.53131L46.5625 17.9867V13.2188C46.5625 12.7298 46.7568 12.2609 47.1026 11.9151C47.4483 11.5693 47.9173 11.3751 48.4063 11.3751H52.0938C52.5828 11.3751 53.0518 11.5693 53.3975 11.9151C53.7433 12.2609 53.9375 12.7298 53.9375 13.2188V25.3617L62.6179 34.0384C62.9636 34.3846 63.1577 34.854 63.1573 35.3433C63.157 35.8325 62.9623 36.3016 62.6161 36.6473C62.2699 36.9931 61.8005 37.1871 61.3112 37.1867C60.822 37.1864 60.3529 36.9917 60.0072 36.6455L35.5 12.1384L10.9929 36.6455C10.6472 36.9917 10.1781 37.1864 9.68885 37.1867C9.19959 37.1871 8.73022 36.9931 8.38402 36.6473C8.03781 36.3016 7.84312 35.8325 7.84277 35.3433C7.84243 34.854 8.03646 34.3846 8.38217 34.0384L32.893 9.53131Z" fill="#F37021"/>
<path d="M57.625 38.2681L35.5 16.1431L13.375 38.2681V53.7814C13.375 55.2484 13.9578 56.6553 14.9951 57.6926C16.0324 58.7299 17.4393 59.3126 18.9062 59.3126H52.0938C53.5607 59.3126 54.9676 58.7299 56.0049 57.6926C57.0422 56.6553 57.625 55.2484 57.625 53.7814V38.2681ZM35.5 35.2775C41.636 29.1083 56.9797 39.9016 35.5 53.7814C14.0203 39.9016 29.364 29.1083 35.5 35.2775Z" fill="#F37021"/>
</svg>
