<svg width="72" height="72" viewBox="0 0 72 72" fill="none" xmlns="http://www.w3.org/2000/svg">
<path d="M65.7396 32.4184L59.3722 21.8567C58.9062 21.0898 58.2512 20.4552 57.4699 20.0137C56.6886 19.5721 55.8071 19.3384 54.9097 19.3348H49.9105V18.5925C49.9106 17.5206 49.6989 16.4592 49.2876 15.4693C48.8763 14.4794 48.2735 13.5805 47.5138 12.8243C45.9781 11.294 43.8987 10.4344 41.7307 10.4335H11.9714C10.3517 10.4228 8.76566 10.8956 7.41625 11.7915C6.06684 12.6874 5.01546 13.9656 4.39668 15.4625C3.98727 16.4548 3.7805 17.5191 3.78856 18.5925V45.2963C3.79024 46.5504 4.24626 47.7615 5.0722 48.7053C5.89814 49.6491 7.03806 50.2616 8.28092 50.4296C8.26701 50.6979 8.26701 50.9652 8.28092 51.2315C8.27032 52.4958 8.51517 53.7492 9.00077 54.9166C9.48638 56.084 10.2027 57.1413 11.1069 58.0251C11.9941 58.9486 13.0562 59.6864 14.2312 60.1956C15.4062 60.7048 16.6708 60.9753 17.9513 60.9912C20.507 60.9681 22.9521 59.9451 24.7629 58.1414C26.572 56.3406 27.6 53.9002 27.6246 51.3477C27.6399 51.1015 27.6399 50.8546 27.6246 50.6084H44.0469C44.0316 50.8546 44.0316 51.1015 44.0469 51.3477C44.0359 52.6125 44.2806 53.8666 44.7662 55.0345C45.2518 56.2024 45.9684 57.2602 46.8729 58.1444C47.7608 59.0686 48.8238 59.8068 49.9999 60.316C51.176 60.8252 52.4417 61.0953 53.7232 61.1105C56.279 61.0873 58.724 60.0643 60.5348 58.2606C62.3429 56.4593 63.3697 54.0191 63.3936 51.467C63.409 51.2198 63.409 50.9719 63.3936 50.7247H65.6472C66.2352 50.7163 66.7969 50.4795 67.2136 50.0646C67.6302 49.6496 67.8692 49.0888 67.88 48.5009V39.9275C67.88 37.2744 67.1377 34.675 65.7396 32.4184ZM23.1293 51.2285C23.1301 51.9099 22.9936 52.5845 22.7278 53.212C22.4619 53.8394 22.0723 54.4068 21.5821 54.8802C20.5904 55.8225 19.2746 56.348 17.9066 56.348C16.5385 56.348 15.2227 55.8225 14.231 54.8802C13.7476 54.3978 13.3648 53.8243 13.1049 53.1928C12.8449 52.5613 12.7129 51.8845 12.7166 51.2016C12.7026 50.4965 12.8452 49.7971 13.134 49.1537C13.5275 48.2206 14.2042 47.4337 15.0657 46.8971C15.9468 46.3147 16.9847 46.0152 18.0407 46.0386C19.0483 46.0386 20.032 46.3367 20.8667 46.8971C21.7222 47.4426 22.3959 48.2266 22.8043 49.1537C23.0965 49.7946 23.2515 50.4952 23.2485 51.2016L23.1293 51.2285ZM32.7996 36.395H17.9244C17.1369 36.3943 16.3817 36.0819 15.8237 35.5261C15.2658 34.9704 14.9504 34.2164 14.9464 33.4289C14.9456 33.0383 15.0221 32.6514 15.1714 32.2904C15.3207 31.9294 15.5399 31.6016 15.8164 31.3256C16.0929 31.0497 16.4212 30.8311 16.7825 30.6826C17.1438 30.534 17.5308 30.4583 17.9215 30.4599H32.7996C33.5871 30.4614 34.342 30.7746 34.8994 31.3309C35.4569 31.8872 35.7715 32.6414 35.7747 33.4289C35.7751 33.8193 35.6983 34.2059 35.5488 34.5666C35.3993 34.9272 35.1801 35.2547 34.9036 35.5303C34.6272 35.806 34.299 36.0242 33.9379 36.1726C33.5768 36.321 33.19 36.3966 32.7996 36.395ZM32.7996 26.1881H17.9244C17.1369 26.1873 16.3817 25.875 15.8237 25.3192C15.2658 24.7635 14.9504 24.0095 14.9464 23.222C14.946 22.8316 15.0228 22.445 15.1723 22.0844C15.3217 21.7238 15.541 21.3962 15.8175 21.1206C16.0939 20.845 16.4221 20.6267 16.7832 20.4783C17.1443 20.3299 17.5311 20.2543 17.9215 20.2559H32.7996C33.5866 20.2575 34.3411 20.5702 34.8984 21.1259C35.4557 21.6815 35.7707 22.435 35.7747 23.222C35.7751 23.6124 35.6983 23.999 35.5488 24.3596C35.3993 24.7202 35.1801 25.0478 34.9036 25.3234C34.6272 25.599 34.299 25.8173 33.9379 25.9657C33.5768 26.1141 33.19 26.1897 32.7996 26.1881ZM58.8356 51.2285C58.8361 51.9101 58.6991 52.5849 58.4328 53.2123C58.1664 53.8398 57.7762 54.4071 57.2855 54.8802C56.2939 55.8217 54.9788 56.3466 53.6115 56.3466C52.2441 56.3466 50.929 55.8217 49.9374 54.8802C49.4534 54.3981 49.0701 53.8246 48.8096 53.1932C48.5492 52.5617 48.4167 51.8847 48.42 51.2016C48.4074 50.1208 48.7533 49.0661 49.4038 48.2028C50.1371 47.228 51.1894 46.5334 52.3788 46.2442H53.1241C53.2603 46.2118 53.4022 46.2118 53.5384 46.2442H54.1346C55.0379 46.3486 55.8994 46.6854 56.6327 47.225C57.369 47.7646 57.9443 48.4919 58.2991 49.3326C58.5942 49.9735 58.7462 50.674 58.7462 51.3775L58.8356 51.2285Z" fill="#FFB347"/>
<path d="M53.6033 46.0087C53.4663 45.9759 53.3235 45.9759 53.1865 46.0087H53.6033Z" fill="#FFB347"/>
</svg>
