<svg width="160" height="59" viewBox="0 0 160 59" fill="none" xmlns="http://www.w3.org/2000/svg">
<path d="M86.1901 44.791C86.1901 45.1748 85.9578 45.3642 85.4932 45.3642C85.2885 45.3642 84.9897 45.3491 84.5971 45.3244C84.2042 45.2994 83.9112 45.2895 83.7176 45.2895C82.827 45.2895 82.2183 45.4141 81.8975 45.6685C81.5711 45.9229 81.4108 46.4363 81.4108 47.204C81.4108 47.6227 81.4163 48.261 81.4328 49.1135C81.4494 49.9661 81.4549 50.6041 81.4549 51.0228C81.4549 51.3071 81.477 51.7258 81.5156 52.2891C81.5542 52.8475 81.5763 53.2663 81.5763 53.5404C81.5763 53.7747 81.3992 53.9042 81.0397 53.9341C80.5254 53.9739 79.7286 53.994 78.6612 53.994C77.6379 53.994 76.819 53.964 76.2052 53.9042C75.8457 53.8644 75.6685 53.7047 75.6685 53.4207C75.6685 52.6431 75.674 51.4764 75.6851 49.926C75.6961 48.3705 75.7016 47.204 75.7016 46.4264C75.7016 44.1379 75.4693 42.2536 75.0044 40.7779C74.9824 40.6882 74.9713 40.6133 74.9713 40.5587C74.9713 40.4091 75.0544 40.3145 75.2147 40.2645C75.8123 40.2047 76.686 40.0999 77.8313 39.9405C79.5463 39.6364 80.4255 39.4869 80.481 39.4869C80.6744 39.4869 80.8018 39.7909 80.8515 40.3993C80.907 41.0125 81.0066 41.3166 81.1448 41.3166C80.9952 41.3166 81.4323 41.0622 82.4669 40.5488C83.5012 40.0404 84.4969 39.786 85.454 39.786C86.0568 39.786 86.3557 39.9007 86.3557 40.135C86.3557 40.419 86.3225 40.818 86.2561 41.3314C86.1896 41.8898 86.1509 42.2885 86.1399 42.5277C86.1399 42.812 86.1454 43.1857 86.1564 43.6544C86.1791 44.2276 86.1901 44.6066 86.1901 44.791ZM68.0016 45.0851C68.0016 44.4817 67.7638 43.9535 67.2882 43.4947C66.8125 43.0359 66.2483 42.8068 65.59 42.8068C64.9097 42.8068 64.3455 43.0612 63.9029 43.5696C63.4935 44.0432 63.2888 44.5967 63.2888 45.2297C63.2888 45.489 63.438 45.6185 63.7424 45.6185C64.5389 45.6185 65.7834 45.5189 67.4653 45.3195C67.8248 45.2698 68.0016 45.1949 68.0016 45.0851ZM73.6774 45.9725C73.6774 46.9546 73.3234 47.5179 72.6207 47.6526C72.5046 47.6727 71.3872 47.7723 69.263 47.9616C67.9906 48.0862 66.0878 48.2308 63.5542 48.4004C63.7034 49.0436 64.1628 49.532 64.9315 49.8712C65.5566 50.1453 66.2646 50.2849 67.0614 50.2849C68.024 50.2849 68.9863 50.0555 69.96 49.597C70.3694 49.3676 70.7785 49.1382 71.188 48.9088C71.4148 49.0035 71.8021 49.4971 72.3385 50.3895C72.8751 51.2818 73.146 51.8451 73.146 52.0896C73.146 52.1544 73.063 52.2691 72.9027 52.4236C71.5861 53.6899 69.5395 54.323 66.7626 54.323C64.1901 54.323 62.1159 53.6449 60.5395 52.2938C58.9186 50.9229 58.111 49.088 58.111 46.7899C58.111 44.5514 58.8355 42.7168 60.2851 41.2861C61.7785 39.8054 63.7534 39.0676 66.2207 39.0676C68.2952 39.0676 70.0543 39.7506 71.5036 41.1116C72.9526 42.4729 73.6774 44.0932 73.6774 45.9725ZM50.7095 46.85C50.7095 46.0724 50.4441 45.3894 49.9185 44.8061C49.3433 44.1928 48.6351 43.8838 47.7889 43.8838C46.9259 43.8838 46.2345 44.1928 45.7147 44.8061C45.2612 45.3595 45.0344 46.0425 45.0344 46.85C45.0344 47.6826 45.2722 48.3708 45.7478 48.9141C46.2569 49.5073 46.9593 49.8064 47.8554 49.8064C49.758 49.8064 50.7095 48.8191 50.7095 46.85ZM56.7169 46.88C56.7169 48.9689 56.0366 50.6987 54.6758 52.0696C53.2707 53.4904 51.4288 54.2033 49.1496 54.2033C48.3142 54.2033 47.4236 54.0189 46.4723 53.6499C45.5266 53.2808 45.0892 53.0964 45.1781 53.0964C45.0399 53.0964 44.9679 53.241 44.9679 53.5352C44.9679 54.0288 44.9955 54.7716 45.0509 55.7685C45.1061 56.7607 45.134 57.5035 45.134 58.0021C45.134 58.311 44.9568 58.4658 44.5973 58.4658L41.2893 58.4806C40.5425 58.4806 40.0613 58.4556 39.8456 58.406C39.5192 58.3412 39.3586 58.1618 39.3586 57.8676L39.392 46.6305C39.392 44.3621 39.2038 42.4528 38.8278 40.8923C38.8057 40.7977 38.7947 40.7129 38.7947 40.6481C38.7947 40.4986 38.8612 40.4039 38.9884 40.354C39.4088 40.2094 40.2109 40.0499 41.4003 39.8853C42.551 39.7206 43.3862 39.6359 43.9062 39.6359C44.3267 39.6359 44.5701 39.8853 44.6307 40.3836C44.6972 40.8871 44.7745 41.1365 44.8686 41.1365C44.7634 41.1365 45.2225 40.8723 46.2516 40.3389C47.2863 39.8104 48.221 39.5461 49.0619 39.5461C51.4018 39.5461 53.2771 40.2442 54.6767 41.6351C56.0366 42.9813 56.7169 44.7311 56.7169 46.88ZM35.7736 53.3659C35.7736 53.705 35.6133 53.8944 35.2869 53.9341C34.9605 53.9739 34.164 53.994 32.8861 53.994C31.564 53.994 30.7454 53.964 30.419 53.9042C30.0926 53.8493 29.9323 53.6101 29.9323 53.1913C29.9323 52.7427 29.9489 52.0745 29.982 51.1822C30.0151 50.2899 30.0316 49.6217 30.0316 49.1731C30.0316 47.468 30.0096 46.2516 29.9651 45.5338C29.9044 44.3719 29.2903 43.7938 28.134 43.7938C27.6252 43.7938 27.1217 43.9884 26.6182 44.3722C26.115 44.7561 25.8383 45.1798 25.7831 45.6484C25.7389 46.0573 25.7166 47.2586 25.7166 49.2431C25.7166 49.7016 25.7331 50.3947 25.7665 51.3268C25.7996 52.2543 25.8162 52.9521 25.8162 53.4207C25.8162 53.7448 25.6614 53.9042 25.3461 53.9042H20.4285C20.1242 53.9042 19.9749 53.7047 19.9749 53.3061C19.9749 52.8473 19.9915 52.1593 20.0246 51.247C20.0577 50.3297 20.0742 49.6368 20.0742 49.1681C20.0742 48.8092 20.0632 48.2656 20.0411 47.533C20.0191 46.805 20.008 46.2519 20.008 45.8828C20.008 44.4919 19.4214 43.7938 18.2434 43.7938C17.7674 43.7938 17.2532 43.9584 16.7 44.2924C16.0972 44.6513 15.7929 45.0302 15.7929 45.4289C15.7929 46.3163 15.7984 47.6425 15.8094 49.4022C15.8205 51.1668 15.826 52.488 15.826 53.3656C15.826 53.6048 15.7929 53.7593 15.7264 53.8142C15.6657 53.874 15.4996 53.9141 15.2287 53.9338C14.742 53.9736 13.9786 53.9937 12.9332 53.9937C12.2529 53.9937 11.4781 53.9638 10.6154 53.9039C10.361 53.8839 10.206 53.8491 10.1563 53.804C10.1067 53.7544 10.0843 53.6046 10.0843 53.3653C10.0843 52.5827 10.0898 51.4209 10.1008 49.8656C10.1119 48.3153 10.1174 47.1486 10.1174 46.3709C10.1174 44.7756 9.9847 42.9758 9.719 40.9818C9.69693 40.8671 9.6859 40.7773 9.6859 40.7175C9.6859 40.5529 9.76314 40.4434 9.91268 40.3836C10.1505 40.2939 10.5986 40.2242 11.2568 40.1643C12.0702 40.0947 12.5514 40.0496 12.7006 40.0299C12.8113 40.0099 13.2372 39.9103 13.9841 39.7209C14.5097 39.5862 14.9357 39.5165 15.2621 39.5165C15.4723 39.5165 15.5829 39.8557 15.594 40.5337C15.605 41.2117 15.6494 41.5506 15.7267 41.5506C15.8373 41.5108 15.959 41.4409 16.0975 41.3462C17.0711 40.6632 17.8342 40.1945 18.3984 39.9402C19.2283 39.5763 20.13 39.3969 21.0981 39.3969C22.0938 39.3969 22.9734 39.5964 23.7533 39.9951C24.6274 40.4486 25.1916 41.077 25.4518 41.8846C26.027 41.1815 26.8125 40.5932 27.8192 40.1147C28.8263 39.6361 29.8051 39.3969 30.7567 39.3969C32.1839 39.3969 33.351 39.696 34.2474 40.2892C35.2651 40.9623 35.7742 41.9194 35.7742 43.1657C35.7742 43.6843 35.7576 44.462 35.7245 45.4989C35.6911 46.5359 35.6746 47.3135 35.6746 47.8272C35.6746 48.4404 35.6911 49.3627 35.7245 50.5991C35.757 51.8303 35.7736 52.7529 35.7736 53.3659ZM6.67118 43.1161C6.67118 44.2628 6.70428 45.9926 6.77078 48.3008C6.83727 50.6041 6.87038 52.3339 6.87038 53.4855C6.87038 53.6801 6.82072 53.7997 6.72664 53.8493C6.70457 53.8595 6.56083 53.8793 6.30065 53.9092C5.60374 53.9838 4.6632 54.0239 3.48484 54.0239C1.90837 54.0239 0.901628 53.9838 0.470124 53.9092C0.154772 53.8493 0 53.6998 0 53.4556C0 53.6101 0.0496552 52.7526 0.143738 50.8831C0.337421 46.9395 0.431213 44.3522 0.431213 43.1158C0.431213 42.0739 0.392592 40.5084 0.315061 38.4244C0.23753 36.3406 0.198909 34.7801 0.198909 33.7382C0.198909 33.5239 0.320578 33.4142 0.569434 33.4142C0.906855 33.4142 1.41037 33.429 2.08521 33.4589C2.76006 33.4888 3.26909 33.5039 3.601 33.5039C3.93842 33.5039 4.4309 33.4888 5.08338 33.4589C5.73616 33.429 6.23416 33.4142 6.56577 33.4142C6.88112 33.4142 7.03589 33.5239 7.03589 33.7382C7.03589 34.7801 6.9752 36.3406 6.85325 38.4244C6.73216 40.5084 6.67118 42.0739 6.67118 43.1161Z" fill="#F37021"/>
<path d="M152.357 48.3179L152.417 48.3423C152.568 47.9834 152.71 47.6567 152.843 47.3632C152.975 47.0693 153.088 46.7838 153.181 46.5062C153.274 46.1961 153.351 45.8779 153.413 45.5515C153.475 45.2251 153.521 44.8662 153.552 44.4745C153.583 44.099 153.6 43.7767 153.604 43.5075C153.607 43.2383 153.607 43.0057 153.602 42.8097C153.597 42.5974 153.583 42.4139 153.56 42.2589C153.536 42.1038 153.513 41.9609 153.49 41.8306C153.446 41.6674 153.397 41.492 153.343 41.3044C153.289 41.1165 153.229 40.8923 153.163 40.6313L152.251 41.2431C152.113 41.341 151.991 41.4185 151.883 41.4757C151.774 41.5329 151.671 41.5861 151.572 41.6348C151.553 41.6511 151.538 41.6633 151.528 41.6714C151.519 41.6796 151.504 41.6918 151.485 41.7083C151.347 41.7736 151.209 41.8593 151.072 41.9653C150.935 42.0713 150.77 42.2307 150.575 42.4427C150.4 42.6221 150.201 42.8425 149.978 43.1036C149.755 43.3646 149.528 43.6585 149.297 43.9849C148.873 44.6048 148.487 45.3395 148.138 46.188C147.789 47.0368 147.607 47.9587 147.59 48.9541C147.59 48.9541 147.59 48.9582 147.591 48.9663C147.591 48.9745 147.591 48.9867 147.591 49.0029C147.592 49.0192 147.592 49.0314 147.592 49.0398C147.593 49.0479 147.593 49.052 147.593 49.052C147.595 49.1661 147.603 49.2805 147.615 49.3949C147.628 49.5091 147.646 49.6235 147.668 49.7376C147.737 50.1293 147.89 50.4882 148.127 50.8146C148.364 51.141 148.702 51.3123 149.141 51.3286C149.141 51.3286 149.15 51.3286 149.17 51.3286C149.609 51.3286 150.033 51.1573 150.444 50.8146C150.854 50.472 151.214 50.0965 151.523 49.6885C151.716 49.4275 151.884 49.1745 152.028 48.9298C152.171 48.6853 152.281 48.4811 152.357 48.3179ZM153.711 37.2774H153.681L153.711 38.5504L154.975 37.6691C155.073 37.6038 155.176 37.5344 155.284 37.4609C155.392 37.3875 155.505 37.3099 155.622 37.2283C155.799 37.0977 155.985 36.9795 156.182 36.8732C156.379 36.7672 156.576 36.6815 156.774 36.6162C156.853 36.6 156.928 36.5878 156.997 36.5793C157.066 36.5709 157.131 36.5671 157.191 36.5671C157.33 36.5671 157.465 36.5875 157.596 36.6284C157.727 36.6691 157.853 36.7466 157.975 36.861C158.808 37.5629 159.325 38.3338 159.524 39.1745C159.723 40.0148 159.865 40.9411 159.948 41.9528C159.949 41.9856 159.95 42.0222 159.951 42.0632C159.952 42.1038 159.953 42.1407 159.953 42.1732C159.955 42.2223 159.956 42.2711 159.957 42.3201C159.958 42.3692 159.969 42.418 159.99 42.4671C159.991 42.5161 159.993 42.5609 159.993 42.6018C159.994 42.6425 159.996 42.6875 159.997 42.7365C160.009 43.2586 159.987 43.7932 159.93 44.34C159.873 44.8868 159.782 45.4377 159.655 45.9926C159.059 48.6037 157.805 50.9946 155.893 53.1652C153.982 55.3358 151.701 56.421 149.051 56.421C148.612 56.421 148.168 56.3841 147.718 56.3109C147.268 56.2374 146.812 56.1274 146.35 55.9805C144.463 55.3602 143.192 54.4789 142.537 53.3365C141.882 52.1942 141.536 50.8152 141.498 49.1995C141.423 46.0498 142.496 43.1611 144.716 40.5337C146.935 37.9061 149.427 36.4864 152.192 36.2741C152.212 36.2741 152.237 36.2741 152.267 36.2741C152.297 36.2741 152.322 36.266 152.341 36.2498C152.361 36.2498 152.386 36.2498 152.416 36.2498C152.446 36.2498 152.471 36.2498 152.491 36.2498C152.969 36.2498 153.29 36.3517 153.454 36.5558C153.619 36.7594 153.704 37.0001 153.711 37.2774ZM131.335 42.8344C131.318 42.9323 131.179 43.3974 130.92 44.2297C130.661 45.0619 130.383 45.9676 130.087 46.9468C129.752 47.9425 129.455 48.8563 129.195 49.6885C128.936 50.5207 128.806 50.9369 128.806 50.9369C128.866 50.9369 128.926 50.9328 128.985 50.9247C129.045 50.9165 129.105 50.9125 129.164 50.9125C130.535 50.733 131.79 50.0965 132.93 49.0029C134.07 47.9096 134.683 46.661 134.77 45.2576C134.788 45.176 134.796 45.0904 134.794 45.0006C134.792 44.9109 134.79 44.8252 134.788 44.7436C134.77 44.0093 134.56 43.3362 134.157 42.7241C133.754 42.1122 133.02 41.6348 131.956 41.2919C131.896 41.2756 131.836 41.2594 131.776 41.2428C131.716 41.2266 131.656 41.2103 131.595 41.1938C131.575 41.1775 131.56 41.1694 131.55 41.1694C131.54 41.1694 131.525 41.1694 131.505 41.1694C131.304 41.104 131.089 41.0468 130.859 40.998C130.628 40.949 130.343 40.9164 130.004 40.9002C129.985 40.9002 129.955 40.9002 129.915 40.9002C129.875 40.9002 129.845 40.9002 129.825 40.9002C129.785 40.9164 129.751 40.9246 129.721 40.9246C129.691 40.9246 129.656 40.9246 129.616 40.9246L128.721 40.9736C129.385 41.2675 129.909 41.5082 130.292 41.6958C130.675 41.8834 130.958 42.0588 131.141 42.2223C131.203 42.2876 131.254 42.357 131.296 42.4302C131.337 42.5037 131.359 42.5812 131.361 42.6628C131.362 42.679 131.362 42.6912 131.362 42.6997C131.362 42.7078 131.363 42.72 131.363 42.7365C131.344 42.7528 131.334 42.7691 131.334 42.7856C131.334 42.8019 131.334 42.8181 131.335 42.8344ZM124.234 45.8944L125.842 41.8308C125.822 41.8308 125.807 41.8308 125.797 41.8308C125.787 41.8308 125.782 41.8308 125.782 41.8308C125.762 41.8308 125.747 41.8308 125.737 41.8308C125.728 41.8308 125.712 41.8308 125.692 41.8308C125.473 41.8308 125.28 41.8552 125.111 41.9043C124.943 41.9534 124.78 42.0022 124.622 42.0512C124.602 42.0512 124.587 42.0553 124.577 42.0634C124.567 42.0716 124.553 42.0838 124.533 42.1C124.474 42.1163 124.414 42.1328 124.355 42.1491C124.295 42.1654 124.236 42.1819 124.177 42.1982C124.137 42.1982 124.102 42.1982 124.072 42.1982C124.042 42.1982 124.007 42.1982 123.968 42.1982C123.847 42.1657 123.731 42.1125 123.62 42.0391C123.508 41.9656 123.452 41.8881 123.45 41.8065C123.45 41.7902 123.449 41.7739 123.449 41.7574C123.448 41.7411 123.448 41.7167 123.447 41.6839C123.427 41.6677 123.416 41.6511 123.416 41.6348C123.416 41.6186 123.415 41.602 123.415 41.5858C123.409 41.3247 123.452 41.0552 123.545 40.7779C123.638 40.5003 123.731 40.223 123.825 39.9454C123.882 39.8313 123.934 39.7128 123.981 39.5906C124.028 39.468 124.069 39.3417 124.106 39.211C124.124 39.1457 124.143 39.0844 124.162 39.0275C124.18 38.9703 124.199 38.9093 124.217 38.844C124.441 38.1912 124.773 37.7017 125.214 37.3753C125.654 37.0489 126.63 36.8041 128.14 36.6409C128.319 36.6246 128.498 36.6084 128.677 36.5918C128.856 36.5756 129.035 36.5593 129.214 36.5427C129.374 36.5427 129.543 36.5387 129.722 36.5306C129.901 36.5224 130.08 36.5184 130.26 36.5184C132.93 36.5184 135.345 37.118 137.505 38.3175C139.666 39.5171 140.789 41.5123 140.874 44.3029C140.875 44.3519 140.877 44.4007 140.878 44.4498C140.879 44.4989 140.88 44.5476 140.881 44.5967C140.9 47.1099 139.873 49.3784 137.799 51.402C135.724 53.4257 133.43 54.7966 130.916 55.5147C130.382 55.6616 129.856 55.7717 129.34 55.8451C128.824 55.9186 128.307 55.9633 127.789 55.9799C127.709 55.9799 127.63 55.9799 127.55 55.9799C127.47 55.9799 127.391 55.9799 127.311 55.9799C127.052 55.9799 126.817 55.9717 126.608 55.9555C126.398 55.9392 126.193 55.8902 125.992 55.8086C125.65 55.6782 125.291 55.4537 124.915 55.1355C124.539 54.8172 124.064 54.3482 123.492 53.728C123.389 53.6139 123.292 53.5035 123.2 53.3975C123.107 53.2915 123.021 53.1896 122.938 53.0915C122.836 52.9608 122.753 52.8223 122.689 52.6754C122.626 52.5284 122.592 52.349 122.587 52.1367C122.583 51.9573 122.603 51.7572 122.648 51.5368C122.692 51.3164 122.751 51.0513 122.823 50.7411L124.234 45.8944ZM118.754 36.5921L118.725 36.6412C118.825 36.6249 118.924 36.6168 119.024 36.6168C119.123 36.6168 119.223 36.6168 119.322 36.6168C119.442 36.6168 119.567 36.6209 119.696 36.629C119.826 36.6371 119.961 36.6412 120.1 36.6412C120.619 36.6903 121.109 36.7637 121.57 36.8616C122.03 36.9594 122.352 37.0573 122.533 37.1555C122.534 37.1717 122.544 37.1839 122.564 37.1923C122.584 37.2005 122.595 37.2127 122.595 37.2292C122.697 37.3433 122.77 37.4577 122.812 37.5719C122.855 37.686 122.877 37.8004 122.88 37.9145C122.882 38.0124 122.87 38.1186 122.843 38.2328C122.816 38.3469 122.783 38.4613 122.746 38.5754C122.728 38.6407 122.709 38.702 122.691 38.7589C122.672 38.8158 122.654 38.8771 122.635 38.9424L121.145 44.1812L118.91 50.8152C118.463 52.1533 117.625 53.3609 116.395 54.4383C115.165 55.5153 113.534 56.0621 111.502 56.0783C111.263 56.0783 111.014 56.0661 110.754 56.0414C110.495 56.017 110.225 55.9883 109.945 55.9558C107.946 55.6947 106.476 55.0173 105.533 53.924C104.591 52.8307 104.104 51.623 104.073 50.3009C104.07 50.154 104.071 50.0071 104.078 49.8604C104.084 49.7135 104.095 49.5584 104.112 49.3952C104.128 49.2483 104.15 49.1014 104.176 48.9544C104.202 48.8075 104.234 48.6606 104.27 48.5139L106.847 38.6486C106.865 38.5507 106.888 38.4569 106.915 38.3669C106.943 38.2772 106.966 38.1997 106.984 38.1343C107.149 37.5141 107.392 37.0611 107.714 36.7756C108.036 36.4902 108.736 36.3555 109.812 36.3717C110.211 36.3717 110.51 36.3839 110.71 36.4083C110.91 36.4327 111.09 36.4614 111.25 36.494C111.35 36.5102 111.455 36.5308 111.565 36.5552C111.675 36.5796 111.811 36.6084 111.971 36.6409C112.471 36.7388 112.813 36.8735 112.996 37.0448C113.18 37.2161 113.274 37.4078 113.279 37.6201C113.282 37.767 113.261 37.9261 113.215 38.0974C113.17 38.2688 113.109 38.436 113.033 38.5992C113.033 38.6155 113.029 38.632 113.019 38.6483C113.01 38.6646 113.005 38.6811 113.005 38.6974C112.948 38.8118 112.896 38.9218 112.849 39.0278C112.802 39.1338 112.769 39.2441 112.752 39.3583L110.248 48.5136C110.249 48.5465 110.245 48.583 110.236 48.6237C110.227 48.6646 110.213 48.7012 110.193 48.734C110.176 48.8482 110.154 48.9626 110.126 49.0767C110.099 49.1911 110.087 49.3052 110.089 49.4193C110.071 49.4684 110.062 49.5213 110.063 49.5785C110.065 49.6357 110.066 49.6888 110.067 49.7376C110.075 50.064 110.171 50.3538 110.357 50.6067C110.542 50.8596 110.904 50.9944 111.442 51.0106C111.442 51.0106 111.447 51.0106 111.457 51.0106C111.467 51.0106 111.472 51.0106 111.472 51.0106C111.472 51.0106 111.477 51.0106 111.487 51.0106C111.497 51.0106 111.502 51.0106 111.502 51.0106C112.179 51.0106 112.678 50.8108 112.997 50.411C113.317 50.0111 113.56 49.5747 113.729 49.1014C113.785 48.9382 113.835 48.7791 113.882 48.624C113.928 48.4689 113.969 48.3179 114.006 48.1713L116.581 39.5299C116.674 39.2198 116.752 38.9422 116.816 38.6974C116.88 38.4526 116.94 38.224 116.994 38.0121C117.162 37.5388 117.353 37.1961 117.568 36.9838C117.782 36.7716 118.177 36.6409 118.754 36.5921ZM94.819 41.9287L94.8202 41.9778C94.8771 41.8634 94.9198 41.7736 94.9482 41.7086C94.9767 41.6433 94.9999 41.5779 95.0182 41.5129C95.0173 41.4804 95.0217 41.4476 95.031 41.415C95.04 41.3825 95.0542 41.3497 95.0734 41.3172H91.1878C90.4305 41.3172 89.9008 41.2396 89.5983 41.0846C89.2957 40.9295 89.1223 40.7623 89.0782 40.5828C89.0779 40.5665 89.0776 40.5543 89.0773 40.5459C89.077 40.5378 89.0767 40.5256 89.0765 40.509C89.0762 40.4928 89.0759 40.4806 89.0756 40.4722C89.0753 40.4637 89.075 40.4518 89.0747 40.4356C89.1249 40.0276 89.2004 39.644 89.3018 39.2851C89.4031 38.9262 89.5091 38.5751 89.6206 38.2325C89.6584 38.1346 89.6909 38.0408 89.7185 37.9508C89.7464 37.8611 89.7789 37.7673 89.8166 37.6694C89.9084 37.343 90.1119 37.0942 90.4267 36.9229C90.7415 36.7515 91.0981 36.6659 91.4968 36.6659L102.676 36.7149C103.613 36.7149 104.342 36.7843 104.863 36.9229C105.384 37.0617 105.66 37.343 105.69 37.7676C105.691 37.8001 105.692 37.841 105.693 37.8898C105.694 37.9389 105.686 37.9877 105.667 38.0368C105.668 38.0858 105.659 38.1349 105.64 38.1837C105.621 38.2328 105.613 38.2897 105.614 38.355C105.561 38.6161 105.487 38.8815 105.394 39.1506C105.301 39.4198 105.207 39.6687 105.113 39.8972C105.019 40.142 104.924 40.3583 104.829 40.5459C104.734 40.7335 104.658 40.8845 104.6 40.9986C104.526 41.2109 104.365 41.3453 104.117 41.4025C103.869 41.4597 103.606 41.4882 103.327 41.4882C103.247 41.4882 103.167 41.4882 103.088 41.4882C103.008 41.4882 102.938 41.4801 102.878 41.4638C102.798 41.4638 102.719 41.4638 102.639 41.4638C102.559 41.4638 102.479 41.4638 102.4 41.4638L97.4655 41.3659C97.4655 41.3659 97.566 41.4025 97.7669 41.476C97.9679 41.5495 98.1796 41.6433 98.4011 41.7577C98.5016 41.7902 98.5971 41.8311 98.688 41.8802C98.7786 41.9293 98.8544 41.9699 98.9151 42.0025C98.9354 42.0187 98.9554 42.0309 98.9758 42.0393C98.9958 42.0475 99.0161 42.0597 99.0365 42.0762C99.0768 42.0925 99.112 42.1087 99.1422 42.1253C99.1724 42.1416 99.1976 42.1578 99.218 42.1744C99.2586 42.2069 99.3039 42.2316 99.3541 42.2478C99.4044 42.2641 99.4497 42.2888 99.4903 42.3213C99.6715 42.4029 99.833 42.4926 99.975 42.5905C100.117 42.6883 100.21 42.8271 100.254 43.0066C100.254 43.0229 100.26 43.0394 100.27 43.0557C100.28 43.0719 100.285 43.0885 100.286 43.1047C100.286 43.121 100.287 43.1376 100.287 43.1538C100.288 43.1701 100.288 43.1866 100.288 43.2029C100.291 43.3007 100.273 43.3986 100.235 43.4968C100.198 43.5946 100.16 43.6846 100.122 43.7659C100.122 43.7659 100.122 43.77 100.122 43.7781C100.123 43.7863 100.123 43.7903 100.123 43.7903C100.104 43.8394 100.085 43.8882 100.066 43.9373C100.048 43.9863 100.029 44.0351 100.01 44.0842L96.4419 55.0266C96.4231 55.0756 96.4091 55.1204 96.4001 55.1613C96.3911 55.202 96.387 55.2388 96.3879 55.2714C96.3336 55.4999 96.2334 55.6956 96.088 55.8588C95.9425 56.022 95.5908 56.1117 95.0333 56.128C95.0133 56.128 94.9932 56.128 94.9735 56.128C94.9534 56.128 94.9436 56.128 94.9436 56.128C94.9235 56.128 94.9038 56.128 94.8837 56.128C94.8637 56.128 94.844 56.128 94.8239 56.128C94.0666 56.128 93.3433 56.0789 92.6533 55.981C91.9637 55.8832 91.3876 55.7525 90.9256 55.5893C90.7043 55.5077 90.5527 55.4099 90.4703 55.2955C90.3878 55.181 90.3454 55.0669 90.3425 54.9528C90.3402 54.8549 90.3527 54.7527 90.3803 54.6467C90.4076 54.5408 90.4401 54.4388 90.4775 54.3407C90.4964 54.2916 90.5101 54.2469 90.5191 54.206C90.5281 54.1653 90.5423 54.1284 90.5615 54.0959C90.5391 53.998 90.7374 53.3246 91.1564 52.0763C91.5755 50.8277 92.0465 49.4693 92.5697 48.0002C92.588 47.9349 92.6066 47.8699 92.6249 47.8045C92.6432 47.7392 92.6618 47.6823 92.6806 47.6332C93.1664 46.2623 93.62 45.0099 94.0419 43.8754C94.4644 42.7406 94.7232 42.0919 94.819 41.9287Z" fill="url(#paint0_linear_1039_1132)"/>
<path fill-rule="evenodd" clip-rule="evenodd" d="M30.7787 37.3808C30.2156 37.6625 29.8404 37.8013 29.7365 37.7348C29.4496 37.5507 30.5899 36.7341 30.7627 36.6128C47.9688 24.5283 65.1753 12.4439 82.3817 0.359453C83.1312 -0.119963 83.8597 -0.119673 84.5691 0.359453C97.0633 9.53574 109.557 18.712 122.052 27.888C122.393 28.1392 124.437 29.4529 123.989 29.9692C123.583 30.4367 121.553 29.1636 121.104 28.9212C109.331 22.5598 97.5578 16.1988 85.7844 9.83744C84.1748 9.00173 82.6137 9.10714 81.0857 9.83744C64.3166 19.0187 47.5475 28.1999 30.7787 37.3808Z" fill="url(#paint1_linear_1039_1132)"/>
<path fill-rule="evenodd" clip-rule="evenodd" d="M96.9319 18.9612C93.2548 19.792 89.5777 20.6942 85.9006 21.8505C75.6334 25.0783 69.0877 30.7854 59.7151 35.2764C63.9723 30.0537 70.0932 25.0403 76.4218 21.3858C78.5415 20.1616 83.3589 17.5511 87.1345 16.1108C89.4174 15.2397 90.8403 14.7521 93.1967 15.4816C94.8426 15.9909 96.6238 16.9683 97.4935 18.1127C97.7821 18.4928 97.8225 18.6304 97.7394 18.7216C97.6453 18.8241 97.3822 18.8595 96.9319 18.9612Z" fill="#F37021"/>
<path fill-rule="evenodd" clip-rule="evenodd" d="M110.732 15.2899C111.576 15.2487 112.42 15.2107 113.265 15.1709C111.815 13.4039 110.366 11.637 108.917 9.86972C108.704 9.61041 108.647 9.50936 108.544 9.48351C108.438 9.45651 107.753 9.56947 107.571 9.59299C105.789 9.82529 104.007 10.091 102.225 10.3558C101.649 10.4792 101.505 10.7327 101.82 11.1253C104.595 14.5683 106.725 15.4851 110.732 15.2899Z" fill="#F37021"/>
<defs>
<linearGradient id="paint0_linear_1039_1132" x1="89.0747" y1="46.3354" x2="160" y2="46.3354" gradientUnits="userSpaceOnUse">
<stop stop-color="#FFB347"/>
<stop offset="1" stop-color="#FFCC33"/>
</linearGradient>
<linearGradient id="paint1_linear_1039_1132" x1="29.6904" y1="18.8756" x2="124.053" y2="18.8756" gradientUnits="userSpaceOnUse">
<stop stop-color="#FFB347"/>
<stop offset="1" stop-color="#FFCC33"/>
</linearGradient>
</defs>
</svg>
