<svg width="161" height="73" viewBox="0 0 161 73" fill="none" xmlns="http://www.w3.org/2000/svg">
<path d="M2.31082 70.0741V64.4012H0.104176V63.3973H5.73918V64.4012H3.53253V70.0741H2.31082ZM9.38668 70.1688C8.43331 70.1688 7.72302 69.932 7.2558 69.4585C6.7949 68.9787 6.56445 68.2715 6.56445 67.3371V63.3973H7.78615V67.3276C7.78615 67.9211 7.91243 68.3694 8.16498 68.6724C8.42384 68.9755 8.83108 69.127 9.38668 69.127C9.91704 69.127 10.3148 68.9755 10.58 68.6724C10.8515 68.3694 10.9872 67.9211 10.9872 67.3276V63.3973H12.19V67.3371C12.19 68.2715 11.9532 68.9787 11.4797 69.4585C11.0125 69.932 10.3148 70.1688 9.38668 70.1688ZM13.6128 70.0741V63.3973H16.0373C16.8012 63.3973 17.4452 63.5299 17.9693 63.7951C18.4996 64.054 18.9005 64.4328 19.172 64.9316C19.4435 65.424 19.5793 66.0238 19.5793 66.731C19.5793 67.4318 19.4435 68.0316 19.172 68.5304C18.9005 69.0292 18.4996 69.4112 17.9693 69.6763C17.4452 69.9415 16.8012 70.0741 16.0373 70.0741H13.6128ZM14.8345 69.0607H15.9615C16.7696 69.0607 17.3695 68.8682 17.7609 68.483C18.1524 68.0979 18.3481 67.5139 18.3481 66.731C18.3481 65.9418 18.1524 65.3577 17.7609 64.9789C17.3695 64.5938 16.7696 64.4012 15.9615 64.4012H14.8345V69.0607ZM20.6089 66.731C20.6089 66.0302 20.7352 65.424 20.9877 64.9126C21.2466 64.4012 21.6159 64.0066 22.0958 63.7288C22.5756 63.4447 23.147 63.3026 23.8099 63.3026C24.4666 63.3026 25.0348 63.4447 25.5147 63.7288C25.9945 64.0066 26.3638 64.4012 26.6227 64.9126C26.8879 65.424 27.0205 66.027 27.0205 66.7215C27.0205 67.4223 26.8879 68.0316 26.6227 68.5493C26.3638 69.0607 25.9945 69.4585 25.5147 69.7426C25.0348 70.0267 24.4666 70.1688 23.8099 70.1688C23.147 70.1688 22.5756 70.0267 22.0958 69.7426C21.6222 69.4585 21.256 69.0607 20.9972 68.5493C20.7383 68.0316 20.6089 67.4255 20.6089 66.731ZM21.8874 66.731C21.8874 67.4823 22.0484 68.0695 22.3704 68.4925C22.6924 68.9155 23.1723 69.127 23.8099 69.127C24.4287 69.127 24.9054 68.9155 25.24 68.4925C25.5746 68.0695 25.7419 67.4823 25.7419 66.731C25.7419 65.9733 25.5746 65.3862 25.24 64.9694C24.9117 64.5527 24.435 64.3444 23.8099 64.3444C23.1723 64.3444 22.6924 64.5527 22.3704 64.9694C22.0484 65.3862 21.8874 65.9733 21.8874 66.731ZM30.88 70.0741V63.3973H33.8443C34.5766 63.3973 35.1354 63.5741 35.5206 63.9277C35.9057 64.2813 36.0983 64.7674 36.0983 65.3862C36.0983 65.9986 35.9057 66.4847 35.5206 66.8446C35.1354 67.2045 34.5766 67.3844 33.8443 67.3844H32.1017V70.0741H30.88ZM32.1017 66.4184H33.7022C34.1063 66.4184 34.4093 66.3301 34.6114 66.1533C34.8134 65.9702 34.9144 65.7145 34.9144 65.3862C34.9144 65.0578 34.8134 64.8053 34.6114 64.6285C34.4093 64.4454 34.1063 64.3539 33.7022 64.3539H32.1017V66.4184ZM35.7552 70.0741L38.7763 63.3973H39.7991L42.8581 70.0741H41.6175L40.803 68.1989L41.2955 68.5304H37.2894L37.8008 68.1989L36.9863 70.0741H35.7552ZM39.2782 64.7043L37.9429 67.8674L37.6966 67.5739H40.8788L40.6799 67.8674L39.3161 64.7043H39.2782ZM43.5968 70.0741V63.3973H46.5138C47.2461 63.3973 47.8112 63.571 48.209 63.9182C48.6131 64.2655 48.8151 64.7485 48.8151 65.3672C48.8151 65.7776 48.7236 66.128 48.5405 66.4184C48.3637 66.7089 48.108 66.933 47.7733 67.0909C47.4387 67.2424 47.0441 67.3182 46.5895 67.3182L46.7221 67.1382H47.0441C47.3093 67.1382 47.546 67.2077 47.7544 67.3466C47.9628 67.4855 48.1332 67.697 48.2658 67.9811L49.2413 70.0741H47.8965L46.9115 67.9053C46.8231 67.6844 46.6874 67.5391 46.5043 67.4697C46.3275 67.4002 46.1128 67.3655 45.8603 67.3655H44.8185V70.0741H43.5968ZM44.8185 66.4658H46.3149C46.7442 66.4658 47.0694 66.3774 47.2903 66.2006C47.5176 66.0175 47.6313 65.7524 47.6313 65.4051C47.6313 65.0578 47.5176 64.7958 47.2903 64.619C47.0694 64.4423 46.7442 64.3539 46.3149 64.3539H44.8185V66.4658ZM49.3876 70.0741L52.4088 63.3973H53.4316L56.4906 70.0741H55.2499L54.4355 68.1989L54.9279 68.5304H50.9219L51.4333 68.1989L50.6188 70.0741H49.3876ZM52.9107 64.7043L51.5753 67.8674L51.3291 67.5739H54.5112L54.3123 67.8674L52.9486 64.7043H52.9107ZM59.8281 70.0741V63.3973H61.0499V70.0741H59.8281ZM62.529 70.0741V63.3973H63.5991L66.052 68.9187H65.7584L68.2113 63.3973H69.272V70.0741H68.164V65.121H68.5049L66.2604 70.0741H65.5311L63.2866 65.121H63.637V70.0741H62.529ZM70.76 70.0741V63.3973H73.7243C74.4567 63.3973 75.0155 63.5741 75.4006 63.9277C75.7857 64.2813 75.9783 64.7674 75.9783 65.3862C75.9783 65.9986 75.7857 66.4847 75.4006 66.8446C75.0155 67.2045 74.4567 67.3844 73.7243 67.3844H71.9817V70.0741H70.76ZM71.9817 66.4184H73.5823C73.9863 66.4184 74.2894 66.3301 74.4914 66.1533C74.6935 65.9702 74.7945 65.7145 74.7945 65.3862C74.7945 65.0578 74.6935 64.8053 74.4914 64.6285C74.2894 64.4454 73.9863 64.3539 73.5823 64.3539H71.9817V66.4184ZM77.0676 70.0741V63.3973H81.5661V64.3539H78.2419V66.2006H81.3483V67.1666H78.2419V69.1081H81.5661V70.0741H77.0676ZM82.7 70.0741V63.3973H85.6169C86.3493 63.3973 86.9144 63.571 87.3122 63.9182C87.7162 64.2655 87.9183 64.7485 87.9183 65.3672C87.9183 65.7776 87.8267 66.128 87.6436 66.4184C87.4668 66.7089 87.2111 66.933 86.8765 67.0909C86.5419 67.2424 86.1473 67.3182 85.6927 67.3182L85.8253 67.1382H86.1473C86.4125 67.1382 86.6492 67.2077 86.8576 67.3466C87.0659 67.4855 87.2364 67.697 87.369 67.9811L88.3445 70.0741H86.9996L86.0147 67.9053C85.9263 67.6844 85.7906 67.5391 85.6075 67.4697C85.4307 67.4002 85.216 67.3655 84.9635 67.3655H83.9217V70.0741H82.7ZM83.9217 66.4658H85.418C85.8474 66.4658 86.1725 66.3774 86.3935 66.2006C86.6208 66.0175 86.7345 65.7524 86.7345 65.4051C86.7345 65.0578 86.6208 64.7958 86.3935 64.619C86.1725 64.4423 85.8474 64.3539 85.418 64.3539H83.9217V66.4658ZM89.3592 70.0741V63.3973H90.4294L92.8823 68.9187H92.5887L95.0416 63.3973H96.1023V70.0741H94.9942V65.121H95.3352L93.0906 70.0741H92.3614L90.1169 65.121H90.4673V70.0741H89.3592ZM97.5903 70.0741V63.3973H102.089V64.3539H98.7646V66.2006H101.871V67.1666H98.7646V69.1081H102.089V70.0741H97.5903ZM102.364 70.0741L105.385 63.3973H106.408L109.467 70.0741H108.226L107.412 68.1989L107.904 68.5304H103.898L104.409 68.1989L103.595 70.0741H102.364ZM105.887 64.7043L104.551 67.8674L104.305 67.5739H107.487L107.288 67.8674L105.925 64.7043H105.887ZM110.205 70.0741V63.3973H113.132C113.858 63.3973 114.417 63.552 114.808 63.8614C115.2 64.1644 115.395 64.5875 115.395 65.1304C115.395 65.5345 115.275 65.8755 115.035 66.1533C114.795 66.4311 114.464 66.6173 114.041 66.712V66.57C114.527 66.6394 114.903 66.8162 115.168 67.1003C115.439 67.3781 115.575 67.7475 115.575 68.2084C115.575 68.8019 115.37 69.2628 114.96 69.5911C114.549 69.9131 113.978 70.0741 113.245 70.0741H110.205ZM111.38 69.146H113.103C113.514 69.146 113.833 69.0702 114.06 68.9187C114.287 68.7608 114.401 68.5051 114.401 68.1516C114.401 67.7917 114.287 67.536 114.06 67.3844C113.833 67.2266 113.514 67.1477 113.103 67.1477H111.38V69.146ZM111.38 66.229H112.923C113.359 66.229 113.681 66.1501 113.889 65.9923C114.104 65.8281 114.211 65.5882 114.211 65.2725C114.211 64.9568 114.104 64.7201 113.889 64.5622C113.681 64.3981 113.359 64.316 112.923 64.316H111.38V66.229ZM116.744 70.0741V63.3973H117.966V70.0741H116.744ZM119.436 70.0741V63.3973H120.657V69.0418H123.801V70.0741H119.436ZM124.735 70.0741V63.3973H125.957V70.0741H124.735ZM127.114 70.0741V69.1744L130.855 64.0224V64.4107H127.114V63.3973H132.02V64.2876L128.269 69.4396V69.0607H132.143V70.0741H127.114ZM132.357 70.0741L135.378 63.3973H136.401L139.46 70.0741H138.219L137.405 68.1989L137.897 68.5304H133.891L134.403 68.1989L133.588 70.0741H132.357ZM135.88 64.7043L134.545 67.8674L134.298 67.5739H137.481L137.282 67.8674L135.918 64.7043H135.88ZM143.166 70.1688C142.472 70.1688 141.875 70.0299 141.376 69.7521C140.884 69.468 140.505 69.0702 140.24 68.5588C139.975 68.0411 139.842 67.4318 139.842 66.731C139.842 66.0302 139.975 65.424 140.24 64.9126C140.505 64.4012 140.884 64.0066 141.376 63.7288C141.875 63.4447 142.472 63.3026 143.166 63.3026C143.634 63.3026 144.053 63.3689 144.426 63.5015C144.805 63.6341 145.13 63.8298 145.401 64.0887L145.004 65.0547C144.707 64.8148 144.42 64.6443 144.142 64.5433C143.87 64.4359 143.558 64.3823 143.204 64.3823C142.529 64.3823 142.011 64.5875 141.651 64.9979C141.297 65.4019 141.121 65.9796 141.121 66.731C141.121 67.4823 141.297 68.0632 141.651 68.4736C142.011 68.884 142.529 69.0892 143.204 69.0892C143.558 69.0892 143.87 69.0386 144.142 68.9376C144.42 68.8303 144.707 68.6535 145.004 68.4073L145.401 69.3733C145.13 69.6258 144.805 69.8215 144.426 69.9604C144.053 70.0994 143.634 70.1688 143.166 70.1688ZM143.1 71.9209C142.911 71.9209 142.731 71.9019 142.56 71.864C142.396 71.8325 142.251 71.7851 142.125 71.722L142.295 71.1916C142.409 71.2421 142.522 71.28 142.636 71.3053C142.75 71.3368 142.87 71.3526 142.996 71.3526C143.166 71.3526 143.296 71.3274 143.384 71.2769C143.473 71.2327 143.517 71.1632 143.517 71.0685C143.517 70.9233 143.4 70.8507 143.166 70.8507C143.103 70.8507 143.04 70.8538 142.977 70.8602C142.92 70.8665 142.851 70.8823 142.769 70.9075L142.589 70.737L142.721 69.8847H143.356L143.233 70.6044L142.93 70.5003C142.999 70.475 143.072 70.4561 143.147 70.4434C143.229 70.4308 143.302 70.4245 143.365 70.4245C143.624 70.4245 143.832 70.4845 143.99 70.6044C144.148 70.7244 144.227 70.8917 144.227 71.1064C144.227 71.3526 144.123 71.5484 143.914 71.6936C143.706 71.8451 143.435 71.9209 143.1 71.9209ZM145.666 70.0741L148.687 63.3973H149.71L152.769 70.0741H151.528L150.714 68.1989L151.206 68.5304H147.2L147.711 68.1989L146.897 70.0741H145.666ZM149.189 64.7043L147.853 67.8674L147.607 67.5739H150.789L150.59 67.8674L149.227 64.7043H149.189ZM147.683 62.7628L147.096 62.7249C147.127 62.2766 147.26 61.9325 147.494 61.6926C147.727 61.4464 148.018 61.3233 148.365 61.3233C148.51 61.3233 148.658 61.3517 148.81 61.4085C148.962 61.459 149.141 61.5443 149.35 61.6642C149.533 61.7652 149.678 61.8378 149.785 61.882C149.893 61.9262 149.991 61.9483 150.079 61.9483C150.262 61.9483 150.407 61.8915 150.515 61.7779C150.622 61.6642 150.695 61.5001 150.733 61.2854L151.32 61.3233C151.288 61.7715 151.156 62.1188 150.922 62.365C150.695 62.605 150.407 62.7249 150.06 62.7249C149.909 62.7249 149.754 62.6965 149.596 62.6397C149.445 62.5829 149.258 62.4913 149.037 62.365C148.867 62.264 148.731 62.1946 148.63 62.1567C148.529 62.1188 148.431 62.0999 148.336 62.0999C148.153 62.0999 148.008 62.1567 147.901 62.2703C147.793 62.3777 147.721 62.5418 147.683 62.7628ZM153.151 66.731C153.151 66.0302 153.277 65.424 153.53 64.9126C153.789 64.4012 154.158 64.0066 154.638 63.7288C155.118 63.4447 155.689 63.3026 156.352 63.3026C157.009 63.3026 157.577 63.4447 158.057 63.7288C158.536 64.0066 158.906 64.4012 159.165 64.9126C159.43 65.424 159.562 66.027 159.562 66.7215C159.562 67.4223 159.43 68.0316 159.165 68.5493C158.906 69.0607 158.536 69.4585 158.057 69.7426C157.577 70.0267 157.009 70.1688 156.352 70.1688C155.689 70.1688 155.118 70.0267 154.638 69.7426C154.164 69.4585 153.798 69.0607 153.539 68.5493C153.28 68.0316 153.151 67.4255 153.151 66.731ZM154.429 66.731C154.429 67.4823 154.59 68.0695 154.912 68.4925C155.234 68.9155 155.714 69.127 156.352 69.127C156.971 69.127 157.447 68.9155 157.782 68.4925C158.117 68.0695 158.284 67.4823 158.284 66.731C158.284 65.9733 158.117 65.3862 157.782 64.9694C157.454 64.5527 156.977 64.3444 156.352 64.3444C155.714 64.3444 155.234 64.5527 154.912 64.9694C154.59 65.3862 154.429 65.9733 154.429 66.731Z" fill="white"/>
<path d="M86.1901 44.791C86.1901 45.1748 85.9578 45.3642 85.4932 45.3642C85.2885 45.3642 84.9897 45.3491 84.5971 45.3244C84.2042 45.2994 83.9112 45.2895 83.7176 45.2895C82.827 45.2895 82.2183 45.4141 81.8975 45.6685C81.5711 45.9229 81.4108 46.4363 81.4108 47.204C81.4108 47.6227 81.4163 48.261 81.4328 49.1135C81.4494 49.9661 81.4549 50.6041 81.4549 51.0228C81.4549 51.3071 81.477 51.7258 81.5156 52.2891C81.5542 52.8475 81.5763 53.2663 81.5763 53.5404C81.5763 53.7747 81.3992 53.9042 81.0397 53.9341C80.5254 53.9739 79.7286 53.994 78.6612 53.994C77.6379 53.994 76.819 53.964 76.2052 53.9042C75.8457 53.8644 75.6685 53.7047 75.6685 53.4207C75.6685 52.6431 75.674 51.4764 75.6851 49.926C75.6961 48.3705 75.7016 47.204 75.7016 46.4264C75.7016 44.1379 75.4693 42.2536 75.0044 40.7779C74.9824 40.6882 74.9713 40.6133 74.9713 40.5587C74.9713 40.4091 75.0544 40.3145 75.2147 40.2645C75.8123 40.2047 76.686 40.0999 77.8313 39.9405C79.5463 39.6364 80.4255 39.4869 80.481 39.4869C80.6744 39.4869 80.8018 39.7909 80.8515 40.3993C80.907 41.0125 81.0066 41.3166 81.1448 41.3166C80.9952 41.3166 81.4323 41.0622 82.4669 40.5488C83.5012 40.0404 84.4969 39.786 85.454 39.786C86.0568 39.786 86.3557 39.9007 86.3557 40.135C86.3557 40.419 86.3225 40.818 86.2561 41.3314C86.1896 41.8898 86.1509 42.2885 86.1399 42.5277C86.1399 42.812 86.1454 43.1857 86.1564 43.6544C86.1791 44.2276 86.1901 44.6066 86.1901 44.791ZM68.0016 45.0851C68.0016 44.4817 67.7638 43.9535 67.2882 43.4947C66.8125 43.0359 66.2483 42.8068 65.59 42.8068C64.9097 42.8068 64.3455 43.0612 63.9029 43.5696C63.4935 44.0432 63.2888 44.5967 63.2888 45.2297C63.2888 45.489 63.438 45.6185 63.7424 45.6185C64.5389 45.6185 65.7834 45.5189 67.4653 45.3195C67.8248 45.2698 68.0016 45.1949 68.0016 45.0851ZM73.6774 45.9725C73.6774 46.9546 73.3234 47.5179 72.6207 47.6526C72.5046 47.6727 71.3872 47.7723 69.263 47.9616C67.9906 48.0862 66.0878 48.2308 63.5542 48.4004C63.7034 49.0436 64.1628 49.532 64.9315 49.8712C65.5566 50.1453 66.2646 50.2849 67.0614 50.2849C68.024 50.2849 68.9863 50.0555 69.96 49.597C70.3694 49.3676 70.7785 49.1382 71.188 48.9088C71.4148 49.0035 71.8021 49.4971 72.3385 50.3895C72.8751 51.2818 73.146 51.8451 73.146 52.0896C73.146 52.1544 73.063 52.2691 72.9027 52.4236C71.5861 53.6899 69.5395 54.323 66.7626 54.323C64.1901 54.323 62.1159 53.6449 60.5395 52.2938C58.9186 50.9229 58.111 49.088 58.111 46.7899C58.111 44.5514 58.8355 42.7168 60.2851 41.2861C61.7785 39.8054 63.7534 39.0676 66.2207 39.0676C68.2952 39.0676 70.0543 39.7506 71.5036 41.1116C72.9526 42.4729 73.6774 44.0932 73.6774 45.9725ZM50.7095 46.85C50.7095 46.0724 50.4441 45.3894 49.9185 44.8061C49.3433 44.1928 48.6351 43.8838 47.7889 43.8838C46.9259 43.8838 46.2345 44.1928 45.7147 44.8061C45.2612 45.3595 45.0344 46.0425 45.0344 46.85C45.0344 47.6826 45.2722 48.3708 45.7478 48.9141C46.2569 49.5073 46.9593 49.8064 47.8554 49.8064C49.758 49.8064 50.7095 48.8191 50.7095 46.85ZM56.7169 46.88C56.7169 48.9689 56.0366 50.6987 54.6758 52.0696C53.2707 53.4904 51.4288 54.2033 49.1496 54.2033C48.3142 54.2033 47.4236 54.0189 46.4723 53.6499C45.5266 53.2808 45.0892 53.0964 45.1781 53.0964C45.0399 53.0964 44.9679 53.241 44.9679 53.5352C44.9679 54.0288 44.9955 54.7716 45.0509 55.7685C45.1061 56.7607 45.134 57.5035 45.134 58.0021C45.134 58.311 44.9568 58.4658 44.5973 58.4658L41.2893 58.4806C40.5425 58.4806 40.0613 58.4556 39.8456 58.406C39.5192 58.3412 39.3586 58.1618 39.3586 57.8676L39.392 46.6305C39.392 44.3621 39.2038 42.4528 38.8278 40.8923C38.8057 40.7977 38.7947 40.7129 38.7947 40.6481C38.7947 40.4986 38.8612 40.4039 38.9884 40.354C39.4088 40.2094 40.2109 40.0499 41.4003 39.8853C42.551 39.7206 43.3862 39.6359 43.9062 39.6359C44.3267 39.6359 44.5701 39.8853 44.6307 40.3836C44.6972 40.8871 44.7745 41.1365 44.8686 41.1365C44.7634 41.1365 45.2225 40.8723 46.2516 40.3389C47.2863 39.8104 48.221 39.5461 49.0619 39.5461C51.4018 39.5461 53.2771 40.2442 54.6767 41.6351C56.0366 42.9813 56.7169 44.7311 56.7169 46.88ZM35.7736 53.3659C35.7736 53.705 35.6133 53.8944 35.2869 53.9341C34.9605 53.9739 34.164 53.994 32.8861 53.994C31.564 53.994 30.7454 53.964 30.419 53.9042C30.0926 53.8493 29.9323 53.6101 29.9323 53.1913C29.9323 52.7427 29.9489 52.0745 29.982 51.1822C30.0151 50.2899 30.0316 49.6217 30.0316 49.1731C30.0316 47.468 30.0096 46.2516 29.9651 45.5338C29.9044 44.3719 29.2903 43.7938 28.134 43.7938C27.6252 43.7938 27.1217 43.9884 26.6182 44.3722C26.115 44.7561 25.8383 45.1798 25.7831 45.6484C25.7389 46.0573 25.7166 47.2586 25.7166 49.2431C25.7166 49.7016 25.7331 50.3947 25.7665 51.3268C25.7996 52.2543 25.8162 52.9521 25.8162 53.4207C25.8162 53.7448 25.6614 53.9042 25.3461 53.9042H20.4285C20.1242 53.9042 19.9749 53.7047 19.9749 53.3061C19.9749 52.8473 19.9915 52.1593 20.0246 51.247C20.0577 50.3297 20.0742 49.6368 20.0742 49.1681C20.0742 48.8092 20.0632 48.2656 20.0411 47.533C20.0191 46.805 20.008 46.2519 20.008 45.8828C20.008 44.4919 19.4214 43.7938 18.2434 43.7938C17.7674 43.7938 17.2532 43.9584 16.7 44.2924C16.0972 44.6513 15.7929 45.0302 15.7929 45.4289C15.7929 46.3163 15.7984 47.6425 15.8094 49.4022C15.8205 51.1668 15.826 52.488 15.826 53.3656C15.826 53.6048 15.7929 53.7593 15.7264 53.8142C15.6657 53.874 15.4996 53.9141 15.2287 53.9338C14.742 53.9736 13.9786 53.9937 12.9332 53.9937C12.2529 53.9937 11.4781 53.9638 10.6154 53.9039C10.361 53.8839 10.206 53.8491 10.1563 53.804C10.1067 53.7544 10.0843 53.6046 10.0843 53.3653C10.0843 52.5827 10.0898 51.4209 10.1008 49.8656C10.1119 48.3153 10.1174 47.1486 10.1174 46.3709C10.1174 44.7756 9.9847 42.9758 9.719 40.9818C9.69693 40.8671 9.6859 40.7773 9.6859 40.7175C9.6859 40.5529 9.76314 40.4434 9.91268 40.3836C10.1505 40.2939 10.5986 40.2242 11.2568 40.1643C12.0702 40.0947 12.5514 40.0496 12.7006 40.0299C12.8113 40.0099 13.2372 39.9103 13.9841 39.7209C14.5097 39.5862 14.9357 39.5165 15.2621 39.5165C15.4723 39.5165 15.5829 39.8557 15.594 40.5337C15.605 41.2117 15.6494 41.5506 15.7267 41.5506C15.8373 41.5108 15.959 41.4409 16.0975 41.3462C17.0711 40.6632 17.8342 40.1945 18.3984 39.9402C19.2283 39.5763 20.13 39.3969 21.0981 39.3969C22.0938 39.3969 22.9734 39.5964 23.7533 39.9951C24.6274 40.4486 25.1916 41.077 25.4518 41.8846C26.027 41.1815 26.8125 40.5932 27.8192 40.1147C28.8263 39.6361 29.8051 39.3969 30.7567 39.3969C32.1839 39.3969 33.351 39.696 34.2474 40.2892C35.2651 40.9623 35.7742 41.9194 35.7742 43.1657C35.7742 43.6843 35.7576 44.462 35.7245 45.4989C35.6911 46.5359 35.6746 47.3135 35.6746 47.8272C35.6746 48.4404 35.6911 49.3627 35.7245 50.5991C35.757 51.8303 35.7736 52.7529 35.7736 53.3659ZM6.67118 43.1161C6.67118 44.2628 6.70428 45.9926 6.77078 48.3008C6.83727 50.6041 6.87038 52.3339 6.87038 53.4855C6.87038 53.6801 6.82072 53.7997 6.72664 53.8493C6.70457 53.8595 6.56083 53.8793 6.30065 53.9092C5.60374 53.9838 4.6632 54.0239 3.48484 54.0239C1.90837 54.0239 0.901628 53.9838 0.470124 53.9092C0.154772 53.8493 0 53.6998 0 53.4556C0 53.6101 0.0496552 52.7526 0.143738 50.8831C0.337421 46.9395 0.431213 44.3522 0.431213 43.1158C0.431213 42.0739 0.392592 40.5084 0.315061 38.4244C0.23753 36.3406 0.198909 34.7801 0.198909 33.7382C0.198909 33.5239 0.320578 33.4142 0.569434 33.4142C0.906855 33.4142 1.41037 33.429 2.08521 33.4589C2.76006 33.4888 3.26909 33.5039 3.601 33.5039C3.93842 33.5039 4.4309 33.4888 5.08338 33.4589C5.73616 33.429 6.23416 33.4142 6.56577 33.4142C6.88112 33.4142 7.03589 33.5239 7.03589 33.7382C7.03589 34.7801 6.9752 36.3406 6.85325 38.4244C6.73216 40.5084 6.67118 42.0739 6.67118 43.1161Z" fill="#F37021"/>
<path d="M152.357 48.3179L152.417 48.3423C152.568 47.9834 152.71 47.6567 152.843 47.3632C152.975 47.0693 153.088 46.7838 153.181 46.5062C153.274 46.1961 153.351 45.8779 153.413 45.5515C153.475 45.2251 153.521 44.8662 153.552 44.4745C153.583 44.099 153.6 43.7767 153.604 43.5075C153.607 43.2383 153.607 43.0057 153.602 42.8097C153.597 42.5974 153.583 42.4139 153.56 42.2589C153.536 42.1038 153.513 41.9609 153.49 41.8306C153.446 41.6674 153.397 41.492 153.343 41.3044C153.289 41.1165 153.229 40.8923 153.163 40.6313L152.251 41.2431C152.113 41.341 151.991 41.4185 151.883 41.4757C151.774 41.5329 151.671 41.5861 151.572 41.6348C151.553 41.6511 151.538 41.6633 151.528 41.6714C151.519 41.6796 151.504 41.6918 151.485 41.7083C151.347 41.7736 151.209 41.8593 151.072 41.9653C150.935 42.0713 150.77 42.2307 150.575 42.4427C150.4 42.6221 150.201 42.8425 149.978 43.1036C149.755 43.3646 149.528 43.6585 149.297 43.9849C148.873 44.6048 148.487 45.3395 148.138 46.188C147.789 47.0368 147.607 47.9587 147.59 48.9541C147.59 48.9541 147.59 48.9582 147.591 48.9663C147.591 48.9745 147.591 48.9867 147.591 49.0029C147.592 49.0192 147.592 49.0314 147.592 49.0398C147.593 49.0479 147.593 49.052 147.593 49.052C147.595 49.1661 147.603 49.2805 147.615 49.3949C147.628 49.5091 147.646 49.6235 147.668 49.7376C147.737 50.1293 147.89 50.4882 148.127 50.8146C148.364 51.141 148.702 51.3123 149.141 51.3286C149.141 51.3286 149.15 51.3286 149.17 51.3286C149.609 51.3286 150.033 51.1573 150.444 50.8146C150.854 50.472 151.214 50.0965 151.523 49.6885C151.716 49.4275 151.884 49.1745 152.028 48.9298C152.171 48.6853 152.281 48.4811 152.357 48.3179ZM153.711 37.2774H153.681L153.711 38.5504L154.975 37.6691C155.073 37.6038 155.176 37.5344 155.284 37.4609C155.392 37.3875 155.505 37.3099 155.622 37.2283C155.799 37.0977 155.985 36.9795 156.182 36.8732C156.379 36.7672 156.576 36.6815 156.774 36.6162C156.853 36.6 156.928 36.5878 156.997 36.5793C157.066 36.5709 157.131 36.5671 157.191 36.5671C157.33 36.5671 157.465 36.5875 157.596 36.6284C157.727 36.6691 157.853 36.7466 157.975 36.861C158.808 37.5629 159.325 38.3338 159.524 39.1745C159.723 40.0148 159.865 40.9411 159.948 41.9528C159.949 41.9856 159.95 42.0222 159.951 42.0632C159.952 42.1038 159.953 42.1407 159.953 42.1732C159.955 42.2223 159.956 42.2711 159.957 42.3201C159.958 42.3692 159.969 42.418 159.99 42.4671C159.991 42.5161 159.993 42.5609 159.993 42.6018C159.994 42.6425 159.996 42.6875 159.997 42.7365C160.009 43.2586 159.987 43.7932 159.93 44.34C159.873 44.8868 159.782 45.4377 159.655 45.9926C159.059 48.6037 157.805 50.9946 155.893 53.1652C153.982 55.3358 151.701 56.421 149.051 56.421C148.612 56.421 148.168 56.3841 147.718 56.3109C147.268 56.2374 146.812 56.1274 146.35 55.9805C144.463 55.3602 143.192 54.4789 142.537 53.3365C141.882 52.1942 141.536 50.8152 141.498 49.1995C141.423 46.0498 142.496 43.1611 144.716 40.5337C146.935 37.9061 149.427 36.4864 152.192 36.2741C152.212 36.2741 152.237 36.2741 152.267 36.2741C152.297 36.2741 152.322 36.266 152.341 36.2498C152.361 36.2498 152.386 36.2498 152.416 36.2498C152.446 36.2498 152.471 36.2498 152.491 36.2498C152.969 36.2498 153.29 36.3517 153.454 36.5558C153.619 36.7594 153.704 37.0001 153.711 37.2774ZM131.335 42.8344C131.318 42.9323 131.179 43.3974 130.92 44.2297C130.661 45.0619 130.383 45.9676 130.087 46.9468C129.752 47.9425 129.455 48.8563 129.195 49.6885C128.936 50.5207 128.806 50.9369 128.806 50.9369C128.866 50.9369 128.926 50.9328 128.985 50.9247C129.045 50.9165 129.105 50.9125 129.164 50.9125C130.535 50.733 131.79 50.0965 132.93 49.0029C134.07 47.9096 134.683 46.661 134.77 45.2576C134.788 45.176 134.796 45.0904 134.794 45.0006C134.792 44.9109 134.79 44.8252 134.788 44.7436C134.77 44.0093 134.56 43.3362 134.157 42.7241C133.754 42.1122 133.02 41.6348 131.956 41.2919C131.896 41.2756 131.836 41.2594 131.776 41.2428C131.716 41.2266 131.656 41.2103 131.595 41.1938C131.575 41.1775 131.56 41.1694 131.55 41.1694C131.54 41.1694 131.525 41.1694 131.505 41.1694C131.304 41.104 131.089 41.0468 130.859 40.998C130.628 40.949 130.343 40.9164 130.004 40.9002C129.985 40.9002 129.955 40.9002 129.915 40.9002C129.875 40.9002 129.845 40.9002 129.825 40.9002C129.785 40.9164 129.751 40.9246 129.721 40.9246C129.691 40.9246 129.656 40.9246 129.616 40.9246L128.721 40.9736C129.385 41.2675 129.909 41.5082 130.292 41.6958C130.675 41.8834 130.958 42.0588 131.141 42.2223C131.203 42.2876 131.254 42.357 131.296 42.4302C131.337 42.5037 131.359 42.5812 131.361 42.6628C131.362 42.679 131.362 42.6912 131.362 42.6997C131.362 42.7078 131.363 42.72 131.363 42.7365C131.344 42.7528 131.334 42.7691 131.334 42.7856C131.334 42.8019 131.334 42.8181 131.335 42.8344ZM124.234 45.8944L125.842 41.8308C125.822 41.8308 125.807 41.8308 125.797 41.8308C125.787 41.8308 125.782 41.8308 125.782 41.8308C125.762 41.8308 125.747 41.8308 125.737 41.8308C125.728 41.8308 125.712 41.8308 125.692 41.8308C125.473 41.8308 125.28 41.8552 125.111 41.9043C124.943 41.9534 124.78 42.0022 124.622 42.0512C124.602 42.0512 124.587 42.0553 124.577 42.0634C124.567 42.0716 124.553 42.0838 124.533 42.1C124.474 42.1163 124.414 42.1328 124.355 42.1491C124.295 42.1654 124.236 42.1819 124.177 42.1982C124.137 42.1982 124.102 42.1982 124.072 42.1982C124.042 42.1982 124.007 42.1982 123.968 42.1982C123.847 42.1657 123.731 42.1125 123.62 42.0391C123.508 41.9656 123.452 41.8881 123.45 41.8065C123.45 41.7902 123.449 41.7739 123.449 41.7574C123.448 41.7411 123.448 41.7167 123.447 41.6839C123.427 41.6677 123.416 41.6511 123.416 41.6348C123.416 41.6186 123.415 41.602 123.415 41.5858C123.409 41.3247 123.452 41.0552 123.545 40.7779C123.638 40.5003 123.731 40.223 123.825 39.9454C123.882 39.8313 123.934 39.7128 123.981 39.5906C124.028 39.468 124.069 39.3417 124.106 39.211C124.124 39.1457 124.143 39.0844 124.162 39.0275C124.18 38.9703 124.199 38.9093 124.217 38.844C124.441 38.1912 124.773 37.7017 125.214 37.3753C125.654 37.0489 126.63 36.8041 128.14 36.6409C128.319 36.6246 128.498 36.6084 128.677 36.5918C128.856 36.5756 129.035 36.5593 129.214 36.5427C129.374 36.5427 129.543 36.5387 129.722 36.5306C129.901 36.5224 130.08 36.5184 130.26 36.5184C132.93 36.5184 135.345 37.118 137.505 38.3175C139.666 39.5171 140.789 41.5123 140.874 44.3029C140.875 44.3519 140.877 44.4007 140.878 44.4498C140.879 44.4989 140.88 44.5476 140.881 44.5967C140.9 47.1099 139.873 49.3784 137.799 51.402C135.724 53.4257 133.43 54.7966 130.916 55.5147C130.382 55.6616 129.856 55.7717 129.34 55.8451C128.824 55.9186 128.307 55.9633 127.789 55.9799C127.709 55.9799 127.63 55.9799 127.55 55.9799C127.47 55.9799 127.391 55.9799 127.311 55.9799C127.052 55.9799 126.817 55.9717 126.608 55.9555C126.398 55.9392 126.193 55.8902 125.992 55.8086C125.65 55.6782 125.291 55.4537 124.915 55.1355C124.539 54.8172 124.064 54.3482 123.492 53.728C123.389 53.6139 123.292 53.5035 123.2 53.3975C123.107 53.2915 123.021 53.1896 122.938 53.0915C122.836 52.9608 122.753 52.8223 122.689 52.6754C122.626 52.5284 122.592 52.349 122.587 52.1367C122.583 51.9573 122.603 51.7572 122.648 51.5368C122.692 51.3164 122.751 51.0513 122.823 50.7411L124.234 45.8944ZM118.754 36.5921L118.725 36.6412C118.825 36.6249 118.924 36.6168 119.024 36.6168C119.123 36.6168 119.223 36.6168 119.322 36.6168C119.442 36.6168 119.567 36.6209 119.696 36.629C119.826 36.6371 119.961 36.6412 120.1 36.6412C120.619 36.6903 121.109 36.7637 121.57 36.8616C122.03 36.9594 122.352 37.0573 122.533 37.1555C122.534 37.1717 122.544 37.1839 122.564 37.1923C122.584 37.2005 122.595 37.2127 122.595 37.2292C122.697 37.3433 122.77 37.4577 122.812 37.5719C122.855 37.686 122.877 37.8004 122.88 37.9145C122.882 38.0124 122.87 38.1186 122.843 38.2328C122.816 38.3469 122.783 38.4613 122.746 38.5754C122.728 38.6407 122.709 38.702 122.691 38.7589C122.672 38.8158 122.654 38.8771 122.635 38.9424L121.145 44.1812L118.91 50.8152C118.463 52.1533 117.625 53.3609 116.395 54.4383C115.165 55.5153 113.534 56.0621 111.502 56.0783C111.263 56.0783 111.014 56.0661 110.754 56.0414C110.495 56.017 110.225 55.9883 109.945 55.9558C107.946 55.6947 106.476 55.0173 105.533 53.924C104.591 52.8307 104.104 51.623 104.073 50.3009C104.07 50.154 104.071 50.0071 104.078 49.8604C104.084 49.7135 104.095 49.5584 104.112 49.3952C104.128 49.2483 104.15 49.1014 104.176 48.9544C104.202 48.8075 104.234 48.6606 104.27 48.5139L106.847 38.6486C106.865 38.5507 106.888 38.4569 106.915 38.3669C106.943 38.2772 106.966 38.1997 106.984 38.1343C107.149 37.5141 107.392 37.0611 107.714 36.7756C108.036 36.4902 108.736 36.3555 109.812 36.3717C110.211 36.3717 110.51 36.3839 110.71 36.4083C110.91 36.4327 111.09 36.4614 111.25 36.494C111.35 36.5102 111.455 36.5308 111.565 36.5552C111.675 36.5796 111.811 36.6084 111.971 36.6409C112.471 36.7388 112.813 36.8735 112.996 37.0448C113.18 37.2161 113.274 37.4078 113.279 37.6201C113.282 37.767 113.261 37.9261 113.215 38.0974C113.17 38.2688 113.109 38.436 113.033 38.5992C113.033 38.6155 113.029 38.632 113.019 38.6483C113.01 38.6646 113.005 38.6811 113.005 38.6974C112.948 38.8118 112.896 38.9218 112.849 39.0278C112.802 39.1338 112.769 39.2441 112.752 39.3583L110.248 48.5136C110.249 48.5465 110.245 48.583 110.236 48.6237C110.227 48.6646 110.213 48.7012 110.193 48.734C110.176 48.8482 110.154 48.9626 110.126 49.0767C110.099 49.1911 110.087 49.3052 110.089 49.4193C110.071 49.4684 110.062 49.5213 110.063 49.5785C110.065 49.6357 110.066 49.6888 110.067 49.7376C110.075 50.064 110.171 50.3538 110.357 50.6067C110.542 50.8596 110.904 50.9944 111.442 51.0106C111.442 51.0106 111.447 51.0106 111.457 51.0106C111.467 51.0106 111.472 51.0106 111.472 51.0106C111.472 51.0106 111.477 51.0106 111.487 51.0106C111.497 51.0106 111.502 51.0106 111.502 51.0106C112.179 51.0106 112.678 50.8108 112.997 50.411C113.317 50.0111 113.56 49.5747 113.729 49.1014C113.785 48.9382 113.835 48.7791 113.882 48.624C113.928 48.4689 113.969 48.3179 114.006 48.1713L116.581 39.5299C116.674 39.2198 116.752 38.9422 116.816 38.6974C116.88 38.4526 116.94 38.224 116.994 38.0121C117.162 37.5388 117.353 37.1961 117.568 36.9838C117.782 36.7716 118.177 36.6409 118.754 36.5921ZM94.819 41.9287L94.8202 41.9778C94.8771 41.8634 94.9198 41.7736 94.9482 41.7086C94.9767 41.6433 94.9999 41.5779 95.0182 41.5129C95.0173 41.4804 95.0217 41.4476 95.031 41.415C95.04 41.3825 95.0542 41.3497 95.0734 41.3172H91.1878C90.4305 41.3172 89.9008 41.2396 89.5983 41.0846C89.2957 40.9295 89.1223 40.7623 89.0782 40.5828C89.0779 40.5665 89.0776 40.5543 89.0773 40.5459C89.077 40.5378 89.0767 40.5256 89.0765 40.509C89.0762 40.4928 89.0759 40.4806 89.0756 40.4722C89.0753 40.4637 89.075 40.4518 89.0747 40.4356C89.1249 40.0276 89.2004 39.644 89.3018 39.2851C89.4031 38.9262 89.5091 38.5751 89.6206 38.2325C89.6584 38.1346 89.6909 38.0408 89.7185 37.9508C89.7464 37.8611 89.7789 37.7673 89.8166 37.6694C89.9084 37.343 90.1119 37.0942 90.4267 36.9229C90.7415 36.7515 91.0981 36.6659 91.4968 36.6659L102.676 36.7149C103.613 36.7149 104.342 36.7843 104.863 36.9229C105.384 37.0617 105.66 37.343 105.69 37.7676C105.691 37.8001 105.692 37.841 105.693 37.8898C105.694 37.9389 105.686 37.9877 105.667 38.0368C105.668 38.0858 105.659 38.1349 105.64 38.1837C105.621 38.2328 105.613 38.2897 105.614 38.355C105.561 38.6161 105.487 38.8815 105.394 39.1506C105.301 39.4198 105.207 39.6687 105.113 39.8972C105.019 40.142 104.924 40.3583 104.829 40.5459C104.734 40.7335 104.658 40.8845 104.6 40.9986C104.526 41.2109 104.365 41.3453 104.117 41.4025C103.869 41.4597 103.606 41.4882 103.327 41.4882C103.247 41.4882 103.167 41.4882 103.088 41.4882C103.008 41.4882 102.938 41.4801 102.878 41.4638C102.798 41.4638 102.719 41.4638 102.639 41.4638C102.559 41.4638 102.479 41.4638 102.4 41.4638L97.4655 41.3659C97.4655 41.3659 97.566 41.4025 97.7669 41.476C97.9679 41.5495 98.1796 41.6433 98.4011 41.7577C98.5016 41.7902 98.5971 41.8311 98.688 41.8802C98.7786 41.9293 98.8544 41.9699 98.9151 42.0025C98.9354 42.0187 98.9554 42.0309 98.9758 42.0393C98.9958 42.0475 99.0161 42.0597 99.0365 42.0762C99.0768 42.0925 99.112 42.1087 99.1422 42.1253C99.1724 42.1416 99.1976 42.1578 99.218 42.1744C99.2586 42.2069 99.3039 42.2316 99.3541 42.2478C99.4044 42.2641 99.4497 42.2888 99.4903 42.3213C99.6715 42.4029 99.833 42.4926 99.975 42.5905C100.117 42.6883 100.21 42.8271 100.254 43.0066C100.254 43.0229 100.26 43.0394 100.27 43.0557C100.28 43.0719 100.285 43.0885 100.286 43.1047C100.286 43.121 100.287 43.1376 100.287 43.1538C100.288 43.1701 100.288 43.1866 100.288 43.2029C100.291 43.3007 100.273 43.3986 100.235 43.4968C100.198 43.5946 100.16 43.6846 100.122 43.7659C100.122 43.7659 100.122 43.77 100.122 43.7781C100.123 43.7863 100.123 43.7903 100.123 43.7903C100.104 43.8394 100.085 43.8882 100.066 43.9373C100.048 43.9863 100.029 44.0351 100.01 44.0842L96.4419 55.0266C96.4231 55.0756 96.4091 55.1204 96.4001 55.1613C96.3911 55.202 96.387 55.2388 96.3879 55.2714C96.3336 55.4999 96.2334 55.6956 96.088 55.8588C95.9425 56.022 95.5908 56.1117 95.0333 56.128C95.0133 56.128 94.9932 56.128 94.9735 56.128C94.9534 56.128 94.9436 56.128 94.9436 56.128C94.9235 56.128 94.9038 56.128 94.8837 56.128C94.8637 56.128 94.844 56.128 94.8239 56.128C94.0666 56.128 93.3433 56.0789 92.6533 55.981C91.9637 55.8832 91.3876 55.7525 90.9256 55.5893C90.7043 55.5077 90.5527 55.4099 90.4703 55.2955C90.3878 55.181 90.3454 55.0669 90.3425 54.9528C90.3402 54.8549 90.3527 54.7527 90.3803 54.6467C90.4076 54.5408 90.4401 54.4388 90.4775 54.3407C90.4964 54.2916 90.5101 54.2469 90.5191 54.206C90.5281 54.1653 90.5423 54.1284 90.5615 54.0959C90.5391 53.998 90.7374 53.3246 91.1564 52.0763C91.5755 50.8277 92.0465 49.4693 92.5697 48.0002C92.588 47.9349 92.6066 47.8699 92.6249 47.8045C92.6432 47.7392 92.6618 47.6823 92.6806 47.6332C93.1664 46.2623 93.62 45.0099 94.0419 43.8754C94.4644 42.7406 94.7232 42.0919 94.819 41.9287Z" fill="url(#paint0_linear_1073_11)"/>
<path fill-rule="evenodd" clip-rule="evenodd" d="M30.7787 37.3808C30.2156 37.6625 29.8404 37.8013 29.7365 37.7348C29.4496 37.5507 30.5899 36.7341 30.7627 36.6128C47.9688 24.5283 65.1753 12.4439 82.3817 0.359453C83.1312 -0.119963 83.8597 -0.119673 84.5691 0.359453C97.0633 9.53574 109.557 18.712 122.052 27.888C122.393 28.1392 124.437 29.4529 123.989 29.9692C123.583 30.4367 121.553 29.1636 121.104 28.9212C109.331 22.5598 97.5578 16.1988 85.7844 9.83744C84.1748 9.00173 82.6137 9.10714 81.0857 9.83744C64.3166 19.0187 47.5475 28.1999 30.7787 37.3808Z" fill="url(#paint1_linear_1073_11)"/>
<path fill-rule="evenodd" clip-rule="evenodd" d="M96.9321 18.9612C93.255 19.792 89.578 20.6942 85.9009 21.8505C75.6336 25.0783 69.0879 30.7854 59.7153 35.2764C63.9726 30.0537 70.0935 25.0403 76.422 21.3858C78.5418 20.1616 83.3592 17.5511 87.1347 16.1108C89.4177 15.2397 90.8405 14.7521 93.197 15.4816C94.8428 15.9909 96.624 16.9683 97.4937 18.1127C97.7823 18.4928 97.8227 18.6304 97.7397 18.7216C97.6456 18.8241 97.3825 18.8595 96.9321 18.9612Z" fill="#F37021"/>
<path fill-rule="evenodd" clip-rule="evenodd" d="M110.732 15.2899C111.576 15.2487 112.421 15.2107 113.265 15.1709C111.815 13.4039 110.366 11.637 108.917 9.86972C108.704 9.61041 108.647 9.50936 108.545 9.48351C108.438 9.45651 107.753 9.56947 107.572 9.59299C105.79 9.82529 104.007 10.091 102.226 10.3558C101.65 10.4792 101.505 10.7327 101.821 11.1253C104.595 14.5683 106.725 15.4851 110.732 15.2899Z" fill="#F37021"/>
<defs>
<linearGradient id="paint0_linear_1073_11" x1="89.0747" y1="46.3354" x2="160" y2="46.3354" gradientUnits="userSpaceOnUse">
<stop stop-color="#FFB347"/>
<stop offset="1" stop-color="#FFCC33"/>
</linearGradient>
<linearGradient id="paint1_linear_1073_11" x1="29.6904" y1="18.8756" x2="124.053" y2="18.8756" gradientUnits="userSpaceOnUse">
<stop stop-color="#FFB347"/>
<stop offset="1" stop-color="#FFCC33"/>
</linearGradient>
</defs>
</svg>
